<svg xmlns="http://www.w3.org/2000/svg" viewBox="0 0 512 512"><path d="M117.746,170.938a7.5,7.5,0,0,1-7.5-7.5v-25a22.526,22.526,0,0,1,22.5-22.5,7.5,7.5,0,1,1,0,15,7.509,7.509,0,0,0-7.5,7.5v25A7.5,7.5,0,0,1,117.746,170.938Z" fill="#acd1e4"/><path d="M157.746,115.938a7.5,7.5,0,0,1-7.5-7.5v-10a7.509,7.509,0,0,0-7.5-7.5H126.1a7.5,7.5,0,0,1,0-15h16.649a22.526,22.526,0,0,1,22.5,22.5v10A7.5,7.5,0,0,1,157.746,115.938Z" fill="#acd1e4"/><path d="M99.112,90.938H92.746a22.526,22.526,0,0,1-22.5-22.5v-10a22.526,22.526,0,0,1,22.5-22.5h25a7.5,7.5,0,0,1,0,15h-25a7.509,7.509,0,0,0-7.5,7.5v10a7.508,7.508,0,0,0,7.5,7.5h6.366a7.5,7.5,0,0,1,0,15Z" fill="#acd1e4"/><path d="M296,76.75a7.5,7.5,0,0,1-7.5-7.5v-10a7.509,7.509,0,0,0-7.5-7.5H271a22.526,22.526,0,0,1-22.5-22.5,7.5,7.5,0,0,1,15,0,7.509,7.509,0,0,0,7.5,7.5h10a22.526,22.526,0,0,1,22.5,22.5v10A7.5,7.5,0,0,1,296,76.75Z" fill="#acd1e4"/><path d="M256,121.75a7.5,7.5,0,0,1-7.5-7.5v-15A22.526,22.526,0,0,1,271,76.75h10a7.5,7.5,0,0,1,0,15H271a7.509,7.509,0,0,0-7.5,7.5v15A7.5,7.5,0,0,1,256,121.75Z" fill="#acd1e4"/><path d="M419,90.938a7.5,7.5,0,0,1,0-15,7.508,7.508,0,0,0,7.5-7.5v-25a7.5,7.5,0,1,1,15,0v25A22.526,22.526,0,0,1,419,90.938Z" fill="#acd1e4"/><path d="M357.348,125.379a7.486,7.486,0,0,1-5.83-2.776,22.553,22.553,0,0,1-5.018-14.165v-10a22.526,22.526,0,0,1,22.5-22.5h25a7.5,7.5,0,0,1,0,15H369a7.509,7.509,0,0,0-7.5,7.5v10a7.415,7.415,0,0,0,1.668,4.717,7.5,7.5,0,0,1-5.82,12.224Z" fill="#acd1e4"/><path d="M394,170.938a7.5,7.5,0,0,1-7.5-7.5v-25a7.5,7.5,0,0,0-7.5-7.5,7.5,7.5,0,0,1,0-15,22.5,22.5,0,0,1,22.5,22.5v25A7.5,7.5,0,0,1,394,170.938Z" fill="#acd1e4"/><path d="M137.611,222.615l-9.258-9.258a15,15,0,0,0-21.214,0l-9.258,9.258c-26.18,7.75-45.135,30.395-45.135,57.135,0,33.137,29.1,60,65,60s65-26.863,65-60C182.746,253.01,163.791,230.365,137.611,222.615Z" fill="#f3eade"/><path d="M180.966,265.75H72.924a10,10,0,0,1-9.993-10.388c.01-.249.022-.456.035-.612a2,2,0,0,0-3.76-1.1,55.931,55.931,0,0,0-4.67,12.1h-.01a55.417,55.417,0,0,0-1.74,12h129.92A55.417,55.417,0,0,0,180.966,265.75Z" fill="#f1ddc8"/><path d="M149.454,237.068,137.87,213.9a22.5,22.5,0,0,0-40.248,0L86.038,237.068a7.5,7.5,0,1,0,13.416,6.708l10.792-21.583v21.77a7.5,7.5,0,0,0,15,0v-21.77l10.792,21.583a7.5,7.5,0,1,0,13.416-6.708Z" fill="#f1ddc8"/><path d="M275.865,160.615l-9.258-9.258a15,15,0,0,0-21.214,0l-9.258,9.258C209.955,168.365,191,191.01,191,217.75c0,33.137,29.1,60,65,60s65-26.863,65-60C321,191.01,302.045,168.365,275.865,160.615Z" fill="#f3eade"/><path d="M312.1,240.051a2,2,0,0,1,3.178,2.338C305.1,263.238,282.388,277.75,256,277.75c-35.9,0-65-26.86-65-60a55.972,55.972,0,0,1,6.459-26.1,2,2,0,0,1,3.764,1.1q-.222,2.472-.223,5c0,33.14,29.1,60,65,60A67.585,67.585,0,0,0,312.1,240.051Z" fill="#f1ddc8"/><path d="M287.708,175.068,276.124,151.9a22.5,22.5,0,0,0-40.248,0l-11.584,23.167a7.5,7.5,0,0,0,13.416,6.708L248.5,160.193v21.77a7.5,7.5,0,0,0,15,0v-21.77l10.792,21.583a7.5,7.5,0,1,0,13.416-6.708Z" fill="#f1ddc8"/><path d="M414.865,222.615l-9.258-9.258a15,15,0,0,0-21.214,0l-9.258,9.258C348.955,230.365,330,253.01,330,279.75c0,33.137,29.1,60,65,60s65-26.863,65-60C460,253.01,441.045,230.365,414.865,222.615Z" fill="#f3eade"/><path d="M458.22,265.75H350.178a10,10,0,0,1-9.993-10.388c.01-.249.022-.456.035-.612a2,2,0,0,0-3.76-1.1,55.931,55.931,0,0,0-4.67,12.1h-.01a55.417,55.417,0,0,0-1.74,12H459.96A55.417,55.417,0,0,0,458.22,265.75Z" fill="#f1ddc8"/><path d="M426.708,237.068,415.124,213.9a22.5,22.5,0,0,0-40.248,0l-11.584,23.167a7.5,7.5,0,1,0,13.416,6.708L387.5,222.193v21.77a7.5,7.5,0,0,0,15,0v-21.77l10.792,21.583a7.5,7.5,0,1,0,13.416-6.708Z" fill="#f1ddc8"/><path d="M446.5,482.75H65.5a40,40,0,0,1-40-40v-120a10,10,0,0,1,10-10h441a10,10,0,0,1,10,10v120A40,40,0,0,1,446.5,482.75Z" fill="#da8846"/><path d="M471,312.75H41v-25a10,10,0,0,1,10-10H461a10,10,0,0,1,10,10Z" fill="#ffb355"/><rect x="351" y="277.75" width="15" height="35" fill="#f39d40"/><rect x="248.5" y="277.75" width="15" height="35" fill="#f39d40"/><rect x="146" y="277.75" width="15" height="35" fill="#f39d40"/><path d="M71,290.75v-13H51a10,10,0,0,0-10,10v25H471v-12H81A10,10,0,0,1,71,290.75Z" fill="#f39d40"/><path d="M95.5,482.75h-30a40,40,0,0,1-40-40v-120a10,10,0,0,1,10-10h30a10,10,0,0,0-10,10v120A40,40,0,0,0,95.5,482.75Z" fill="#c3773d"/><path d="M133,369.42a7.5,7.5,0,0,1-7.5,7.5H25.5v-15h100A7.5,7.5,0,0,1,133,369.42Z" fill="#aa6f3d"/><path d="M486.5,361.92v15h-270a7.5,7.5,0,0,1,0-15Z" fill="#aa6f3d"/><path d="M303,426.08a7.5,7.5,0,0,1-7.5,7.5H25.5v-15h270A7.5,7.5,0,0,1,303,426.08Z" fill="#aa6f3d"/><path d="M486.5,418.58v15h-100a7.5,7.5,0,0,1,0-15Z" fill="#aa6f3d"/><path d="M117.746,170.938a7.5,7.5,0,0,1-7.5-7.5v-25a22.526,22.526,0,0,1,22.5-22.5,7.5,7.5,0,1,1,0,15,7.509,7.509,0,0,0-7.5,7.5v25A7.5,7.5,0,0,1,117.746,170.938Z" fill="#525651"/><path d="M157.746,115.938a7.5,7.5,0,0,1-7.5-7.5v-10a7.509,7.509,0,0,0-7.5-7.5H126.1a7.5,7.5,0,0,1,0-15h16.649a22.526,22.526,0,0,1,22.5,22.5v10A7.5,7.5,0,0,1,157.746,115.938Z" fill="#525651"/><path d="M99.112,90.938H92.746a22.526,22.526,0,0,1-22.5-22.5v-10a22.526,22.526,0,0,1,22.5-22.5h25a7.5,7.5,0,0,1,0,15h-25a7.509,7.509,0,0,0-7.5,7.5v10a7.508,7.508,0,0,0,7.5,7.5h6.366a7.5,7.5,0,0,1,0,15Z" fill="#525651"/><path d="M296,76.75a7.5,7.5,0,0,1-7.5-7.5v-10a7.509,7.509,0,0,0-7.5-7.5H271a22.526,22.526,0,0,1-22.5-22.5,7.5,7.5,0,0,1,15,0,7.509,7.509,0,0,0,7.5,7.5h10a22.526,22.526,0,0,1,22.5,22.5v10A7.5,7.5,0,0,1,296,76.75Z" fill="#525651"/><path d="M256,121.75a7.5,7.5,0,0,1-7.5-7.5v-15A22.526,22.526,0,0,1,271,76.75h10a7.5,7.5,0,0,1,0,15H271a7.509,7.509,0,0,0-7.5,7.5v15A7.5,7.5,0,0,1,256,121.75Z" fill="#525651"/><path d="M419,90.938a7.5,7.5,0,0,1,0-15,7.508,7.508,0,0,0,7.5-7.5v-25a7.5,7.5,0,1,1,15,0v25A22.526,22.526,0,0,1,419,90.938Z" fill="#525651"/><path d="M357.348,125.379a7.486,7.486,0,0,1-5.83-2.776,22.553,22.553,0,0,1-5.018-14.165v-10a22.526,22.526,0,0,1,22.5-22.5h25a7.5,7.5,0,0,1,0,15H369a7.509,7.509,0,0,0-7.5,7.5v10a7.415,7.415,0,0,0,1.668,4.717,7.5,7.5,0,0,1-5.82,12.224Z" fill="#525651"/><path d="M394,170.938a7.5,7.5,0,0,1-7.5-7.5v-25a7.5,7.5,0,0,0-7.5-7.5,7.5,7.5,0,0,1,0-15,22.5,22.5,0,0,1,22.5,22.5v25A7.5,7.5,0,0,1,394,170.938Z" fill="#525651"/><path d="M465.5,376.917a7.5,7.5,0,0,0,0-15h-111a7.5,7.5,0,0,0,0,15Z" fill="#525651"/><path d="M330.04,376.917a7.5,7.5,0,0,0,0-15H216.5a7.5,7.5,0,1,0,0,15Z" fill="#525651"/><path d="M486.5,382.25a7.5,7.5,0,0,0-7.5,7.5v28.833H386.5a7.5,7.5,0,0,0,0,15H479v9.167a32.536,32.536,0,0,1-32.5,32.5H65.5A32.536,32.536,0,0,1,33,442.75v-9.167H295.5a7.5,7.5,0,0,0,0-15H33V414.31a7.5,7.5,0,0,0-15,0v28.44a47.554,47.554,0,0,0,47.5,47.5h381a47.554,47.554,0,0,0,47.5-47.5v-53A7.5,7.5,0,0,0,486.5,382.25Z" fill="#525651"/><path d="M478.5,305.373V287.75A17.514,17.514,0,0,0,466.921,271.3c-3.415-25.261-22-46.854-48.063-55.3l-7.948-7.948a22.5,22.5,0,0,0-31.819,0L371.142,216c-25.7,8.33-44.133,29.442-47.916,54.249H301.5c16.453-12.384,27-31.313,27-52.5,0-28.922-19.465-54.312-48.643-63.75l-7.947-7.947a22.5,22.5,0,0,0-31.819,0L232.142,154a71.522,71.522,0,0,0-38.836,29.828,7.5,7.5,0,1,0,12.716,7.955A55.046,55.046,0,0,1,225.076,173.5l-.784,1.568a7.5,7.5,0,0,0,13.416,6.708L248.5,160.193v21.77a7.5,7.5,0,0,0,15,0v-21.77l10.792,21.583a7.5,7.5,0,1,0,13.416-6.708l-.8-1.6c16.322,9.466,26.593,25.984,26.593,44.284,0,28.948-25.794,52.5-57.5,52.5s-57.5-23.552-57.5-52.5a48.656,48.656,0,0,1,.538-7.213,7.5,7.5,0,0,0-14.834-2.23,63.779,63.779,0,0,0-.7,9.443c0,21.187,10.548,40.116,27,52.5H189.52C185.737,245.443,167.309,224.331,141.6,216l-7.948-7.948a22.5,22.5,0,0,0-31.819,0L93.888,216c-25.97,8.416-44.508,29.881-48.024,55.021A17.53,17.53,0,0,0,33.5,287.75v17.623A17.519,17.519,0,0,0,18,322.75v67a7.5,7.5,0,0,0,15,0V376.917h92.5a7.5,7.5,0,0,0,0-15H33V322.75a2.5,2.5,0,0,1,2.5-2.5H86a7.5,7.5,0,0,0,0-15H48.5v-17.5a2.5,2.5,0,0,1,2.5-2.5h95v20H110.746a7.5,7.5,0,1,0,0,15H476.5a2.5,2.5,0,0,1,2.5,2.5v25.667a7.5,7.5,0,0,0,15,0V322.75A17.519,17.519,0,0,0,478.5,305.373Zm-15-17.623v17.5H366v-20h95A2.5,2.5,0,0,1,463.5,287.75Zm-99.428-52.242-.78,1.56a7.5,7.5,0,1,0,13.416,6.708L387.5,222.193v21.77a7.5,7.5,0,0,0,15,0v-21.77l10.792,21.583a7.5,7.5,0,1,0,13.416-6.708l-.78-1.56c13.339,7.8,22.695,20.395,25.6,34.742H338.474C341.377,255.9,350.733,243.3,364.072,235.508ZM351,285.25v20H263.5v-20Zm-289.78-15c2.9-14.347,12.259-26.946,25.6-34.742l-.78,1.56a7.5,7.5,0,1,0,13.416,6.708l10.792-21.583v21.77a7.5,7.5,0,0,0,15,0v-21.77l10.792,21.583a7.5,7.5,0,1,0,13.416-6.708l-.78-1.56c13.339,7.8,22.695,20.395,25.6,34.742Zm99.78,15h87.5v20H161Z" fill="#525651"/><circle cx="486.5" cy="369.42" r="7.5" fill="#525651"/></svg>