<?xml version="1.0" encoding="UTF-8"?>
<svg id="Layer_1" data-name="Layer 1" xmlns="http://www.w3.org/2000/svg" viewBox="0 0 1800 1500">
  <defs>
    <style>
      .cls-1 {
        fill: #ffd1ab;
      }

      .cls-2 {
        fill: #a82c35;
      }

      .cls-3 {
        fill: #71a37a;
      }
    </style>
  </defs>
  <g>
    <rect id="background" class="cls-3" x="150" y="-150" width="1500" height="1800" transform="translate(1650 -150) rotate(90)"/>
    <path d="M1800,1500.5H0c-.2764,0-.5-.2236-.5-.5V0c0-.2764.2236-.5.5-.5h1800c.2764,0,.5.2236.5.5v1500c0,.2764-.2236.5-.5.5ZM.5,1499.5h1799V.5H.5v1499Z"/>
  </g>
  <g id="rose">
    <g>
      <path class="cls-3" d="M596.7862,672.8742s-50.4012-13.6001-86.9971-6.3449c-36.596,7.2552-15.982,11.1995-2.5883,11.7055,13.3937.506,48.5069-2.8196,92.0747,8.3686,43.5678,11.1882,42.6073-3.9018,42.6073-3.9018l-45.0965-9.8273Z"/>
      <path d="M625.7163,691.7153c-6.2983,0-14.9116-1.1187-26.6895-4.1431-34.959-8.978-64.1694-8.5806-81.6206-8.3423-4.252.0576-7.6118.1035-10.2432.0044-4.3687-.165-18.6475-1.0269-18.9771-5.1895-.1641-2.0703,2.2515-4.6987,21.4087-8.4966,36.0854-7.1523,86.0645,5.9902,87.4272,6.3535l45.0737,9.8228c.4365.0952.7568.4678.7852.9136.0078.1201.1528,2.9761-2.8501,5.4624-2.3208,1.9209-6.5654,3.6143-14.3145,3.6147ZM527.6738,677.1411c17.7422,0,42.8091,1.0356,71.8501,8.4937,26.6567,6.8452,35.9746,3.5562,39.1558.9868,1.4395-1.1626,1.9409-2.3813,2.1143-3.1338l-44.2207-9.6367c-.0161-.0034-.0317-.0073-.0474-.0117-.5024-.1353-50.6011-13.4561-86.5425-6.3291-19.4546,3.8569-19.7983,6.2773-19.8037,6.3784.1899,1.1074,6.9297,2.9644,17.0586,3.3467,2.5811.0977,6.0845.0498,10.1406-.0054,3.0781-.0415,6.522-.0889,10.2949-.0889Z"/>
    </g>
    <g>
      <path class="cls-2" d="M448.7283,728.0779c3.6895-.6982,7.4734-1.521,11.2233-2.8653,20.4268-7.3224,40.276-23.6393,39.5287-51.2775-.7472-27.6382-21.5132-57.6035-54.3455-51.4153-1.5906.2998-3.1587.5993-4.7036.8974l-13.1218-10.9424c-10.7995-8.7044-23.8056-15.1548-36.8172-17.8692-22.066-4.6033-30.7083,5.2499-34.3854,14.2002l3.5652,11.3425c-13.52,1.5415-17.6716,4.9774-24.3301,15.8324-6.6585,10.8551-8.7729,36.9129-2.937,53.939,3.3725,9.8392,8.8773,18.1976,14.8109,23.7822l-5.9989,10.6762c-.3538,3.7997.119,7.628.4909,10.6392.8434,6.8285,10.2208,13.6695,23.1453,19.0058,5.2306,2.1596,11.0109,2.5097,17.2989,1.5431,2.6597-.4088,11.462-4.1403,11.462-4.1403.7665,4.5944,2.3602,13.5502,7.3055,15.5395,7.2455,2.9146,15.333-9.4586,18.9361-13.8397,5.6107-6.8223,9.6481-15.4712,12.6267-24.5311,0,0,12.7573.1434,16.2459-.5168Z"/>
      <path d="M415.8218,727.0308c-.1211,0-.2437-.022-.3628-.0684-2.6538-1.0332-5.0171-2.2031-7.0229-3.478-8.8018-5.5928-12.2734-37.0513-14.8086-60.0215-.4111-3.7275-.7998-7.248-1.1699-10.2427-1.6548-13.4009-6.208-18.126-8.8594-19.7656-.9023-.251-1.6909-.5757-2.3745-.979-.4058-.2393-.5898-.7295-.4414-1.1763.1489-.4468.5874-.7305,1.0571-.6792.1284.0142,1.1689.1504,2.6157.9893,6.3032,1.5547,18.958-.6631,33.4951-3.4995.54-.1089,1.0664.2476,1.1729.79.106.542-.248,1.0669-.79,1.1729-14.5308,2.8354-24.4746,4.3999-30.895,3.9829,2.7437,2.9863,5.7246,8.5537,7.0049,18.9194.3711,3.0073.7603,6.5342,1.1724,10.2681,2.3501,21.2949,5.9019,53.4751,13.8931,58.5527,1.897,1.2056,4.1431,2.3164,6.6763,3.3022.5146.2007.7695.7803.5693,1.2949-.1543.3955-.5322.6377-.9321.6377Z"/>
      <path d="M438.5718,731.1211c-1.9336,0-3.8721-.083-5.8076-.25-.5503-.0474-.958-.5317-.9102-1.082.0474-.5503.5317-.9692,1.082-.9102,9.1992.7944,18.479-.3691,26.8315-3.3633,11.979-4.2939,39.7461-17.792,38.8667-50.3091-.4497-16.6396-8.0347-32.8687-19.7939-42.3535-9.4634-7.6328-21.0015-10.437-33.3667-8.106-2.5278.4766-4.999.9521-7.4102,1.4224-.54.104-1.0674-.248-1.1729-.79-.106-.542.248-1.0674.79-1.1729,2.415-.4712,4.8901-.9478,7.4229-1.4253,12.9561-2.4404,25.0581.5015,34.9922,8.5146,12.2031,9.8428,20.0728,26.6479,20.5376,43.8569.915,33.8237-27.8018,47.8047-40.1909,52.2456-6.8618,2.46-14.3267,3.7227-21.8706,3.7227Z"/>
      <path d="M479.5366,673.8594c-.7026,0-1.4224-.0337-2.1597-.104-10.6323-1.019-20.019-9.8135-28.3013-17.5732-2.3501-2.2017-4.5703-4.2817-6.6934-6.0649l-25.9121-21.7622c-1.4351-1.2051-2.8711-2.4619-4.3208-3.731-6.1631-5.394-12.5361-10.9722-20.0859-13.6494-.521-.1846-.793-.7559-.6084-1.2764.1851-.5205.7559-.791,1.2764-.6084,7.9111,2.8052,14.4302,8.5112,20.7349,14.0293,1.4395,1.2598,2.8652,2.5078,4.29,3.7046l25.9121,21.7622c2.1646,1.8179,4.4038,3.9155,6.7749,6.1367,8.0483,7.541,17.1709,16.0879,27.124,17.0415,12.2222,1.1694,19.5698-9.2124,19.6426-9.3179.3154-.4541.9375-.5659,1.3916-.2529.4541.3145.5674.9375.2529,1.3916-.3066.4424-7.2637,10.2744-19.3179,10.2744Z"/>
      <path d="M403.3535,769.6543c-.8833,0-1.7695-.1611-2.6533-.5166-5.0693-2.0391-6.8379-10.0791-7.6895-14.9512-9.9834,4.8506-19.6748,5.5996-28.3857,2.0059-8.3857-3.4629-22.6235-10.6406-23.7559-19.8081-.8042-6.5107-2.1504-17.4082,5.9326-23.3599.4448-.3281,1.0708-.2319,1.3979.2124.3276.4443.2324,1.0703-.2124,1.3979-7.1401,5.2578-5.9321,15.0347-5.1328,21.5044.7358,5.96,8.9492,12.5947,22.5342,18.2046,8.4482,3.4873,17.9468,2.5801,27.7725-2.4688.0903-.0693.1938-.124.3071-.1592,5.8896-3.0762,11.8931-7.6367,17.8569-13.6279,13.3672-13.4277,13.8853-38.876,14.2275-55.7158.0972-4.7593.1807-8.8696.5571-11.6978,1.0977-8.2471,5.0942-19.3467,10.6089-24.605.2378-.2271.5742-.3232.8955-.2549.3218.0674.5903.2896.7173.5933,5.2642,12.6064,5.7349,31.3726,1.4385,57.3716-2.4985,15.1167-7.1851,36.8735-18.9883,51.2256-.4741.5762-1.0264,1.293-1.6445,2.0947-3.7417,4.8506-9.6851,12.5547-15.7837,12.5547ZM394.8765,753.2334c.7109,4.1816,2.3018,12.332,6.5698,14.0488,5.5752,2.2412,12.1694-6.2998,16.1074-11.4043.6328-.8203,1.1982-1.5537,1.6831-2.1426,8.6318-10.4961,14.7026-26.9434,18.5596-50.2822,4.0718-24.6372,3.8306-42.6064-.7441-54.8423-4.6392,5.2856-7.9805,14.9697-8.96,22.3271-.3618,2.7173-.4443,6.7759-.5396,11.4751-.3491,17.1587-.877,43.0898-14.8105,57.0859-5.9443,5.9717-11.9482,10.5664-17.8657,13.7344Z"/>
      <path d="M470.6851,672.0073c-.2275,0-.4556-.0771-.6431-.2349-.4854-.4082-11.9956-10.2383-22.061-31.417-9.791-20.603-33.4517-38.5015-57.5391-43.5264-17.9434-3.7446-29.4219,1.625-34.1221,15.9546-2.0845,6.354,11.7437,13.0913,22.8545,18.5044,3.7144,1.8096,7.2227,3.519,9.9331,5.104.4766.2788.6372.8916.3584,1.3682-.2788.4761-.8926.6367-1.3682.3584-2.6445-1.5469-6.1196-3.2402-9.7988-5.0327-12.4248-6.0532-26.5073-12.9141-23.8794-20.9253,4.999-15.2402,17.5977-21.2173,36.4307-17.2896,24.6597,5.1445,48.8955,23.4951,58.9375,44.626,9.8804,20.7896,21.4263,30.6479,21.5415,30.7451.4229.3555.4771.9863.1216,1.4087-.1978.2354-.481.3564-.7656.3564Z"/>
      <path d="M361.5562,723.3262c-.439,0-.875-.0317-1.3091-.0962-10.667-1.5913-22.9775-15.2368-28.6343-31.7417-5.6343-16.4365-4.1611-43.0615,3.0303-54.7861,6.7622-11.0234,11.1021-14.7104,25.0693-16.3032.5464-.061,1.0444.3315,1.1069.8804s-.3315,1.0444-.8804,1.1069c-13.2339,1.5088-17.1157,4.8057-23.5908,15.3618-6.2422,10.1768-8.8442,35.5854-2.8438,53.0918,5.4326,15.8491,17.0562,28.9233,27.0376,30.4116,8.8496,1.3252,20.3774-15.2637,23.2109-26.7856.8364-3.4014,1.5186-5.7539,2.1206-7.8291,1.4512-5.0054,2.3271-8.0264,3.542-19.4043,1.6284-15.2559-39.6665-30.6665-40.0835-30.8203-.5186-.1914-.7837-.7661-.5923-1.2842.1909-.519.7681-.7817,1.2837-.5928,1.7637.6504,43.1738,16.1157,41.3804,32.9092-1.2329,11.5532-2.1782,14.814-3.6094,19.7495-.5967,2.0566-1.2725,4.3882-2.0991,7.7495-2.9355,11.9395-14.1069,28.3818-24.1392,28.3828Z"/>
      <path d="M360.0986,672.9634c-.3193,0-.6333-.1523-.8271-.436-4.1133-6.0264-8.6626-13.7251-7.3242-19.8188.5625-2.5586,2.1133-4.6138,4.6099-6.1079,1.8359-1.0996,3.8296-1.3433,5.9224-.7222,7.5713,2.2422,14.0557,15.3228,14.3281,15.8784.2432.4956.0381,1.0947-.4575,1.3379-.4966.2422-1.0952.0376-1.3384-.4575-.063-.1284-6.3696-12.8491-13.1011-14.8413-1.5557-.4595-2.9712-.2905-4.3262.5205-2.0332,1.2173-3.2383,2.7939-3.6836,4.8208-1.1743,5.3467,3.1362,12.5684,7.0229,18.2622.311.4565.1938,1.0786-.2622,1.3901-.1729.1177-.3691.1738-.563.1738Z"/>
      <path d="M357.9741,705.5259c-.9326,0-1.7222-.2144-2.3564-.4961-2.3726-1.0522-3.8022-3.4766-4.1348-7.0112-.8013-8.5098,5.2886-23.7959,13.5381-29.5034.4526-.3154,1.0767-.2012,1.3911.2534.3145.4541.2007,1.0771-.2534,1.3911-7.7305,5.3491-13.4365,19.686-12.6846,27.6714.2646,2.8115,1.2588,4.6182,2.9541,5.3706,1.6943.751,3.7061.2109,5.9751-1.6108,6.2427-5.0117,12.2583-18.4155,11.3208-23.0483-.0811-.3999-.2749-1.0845-.6626-1.1733-1.5117-.3481-5.605,3.6006-8.5361,7.4541-.334.439-.9619.5259-1.4009.1904-.4399-.334-.5254-.9614-.1909-1.4009,1.6118-2.1206,7.144-8.9697,10.5742-8.1934.7773.1782,1.7856.7959,2.1763,2.7266,1.0791,5.333-5.0718,19.4189-12.0288,25.0044-2.2422,1.7998-4.1533,2.3755-5.6812,2.3755Z"/>
      <g>
        <path class="cls-3" d="M492.9803,701.3788s-1.2105,9.4352,20.656,5.1346c21.8666-4.3006,38.46-12.436,38.46-12.436,0,0-40.7831-.9199-50.4018-23.8032-9.6187-22.8833-8.7142,31.1046-8.7142,31.1046Z"/>
        <path d="M503.6621,708.6411c-4.5063,0-7.7744-.9316-9.7627-2.792-1.9946-1.8657-1.9556-4.0298-1.9194-4.5054-.1831-11.0093-.0425-36.5864,5.1436-37.6772,1.8369-.3813,3.5234,1.5347,5.4927,6.2202,9.2549,22.0181,49.1011,23.1816,49.5024,23.1909.4609.0103.855.3345.9541.7847s-.1226.9097-.5361,1.1128c-.1675.082-16.9634,8.2432-38.7075,12.5195-3.8887.7646-7.2817,1.1465-10.167,1.1465ZM493.9736,701.4961c-.0083.0811-.1362,1.5889,1.3364,2.9336,1.9199,1.7534,6.625,3.3657,18.1333,1.1025,15.5239-3.0532,28.4756-8.1001,34.5312-10.6968-10.7446-.8975-39.1699-5.0645-47.2021-24.1733-2.1499-5.1152-3.2207-5.0376-3.2373-5.0386-2.2432.4722-3.8711,16.8384-3.5547,35.7388.0005.0444-.0015.0894-.0068.1338Z"/>
      </g>
      <g>
        <path class="cls-3" d="M498.665,665.1378s-13.5484-15.2139-4.1804-30.8438c9.368-15.6299,31.942-9.8856,38.0505-12.2399,6.1086-2.3543-33.8871,10.5267-33.8702,43.0837Z"/>
        <path d="M498.665,666.1377c-.2798,0-.5532-.1177-.7466-.335-.1406-.1577-13.9258-15.9487-4.292-32.0229,7.0557-11.7715,21.249-11.9131,30.6406-12.0068,3.1226-.0308,5.8569-.0581,7.4722-.5088.7446-.3052,1.2031-.4609,1.3003-.4731.5039-.0571.978.2603,1.1001.7505.2207.8809-.5244,1.168-1.2446,1.4458-.1553.0596-.3174.1147-.4878.165-5.5845,2.3643-32.7563,15.3394-32.7422,41.9849,0,.415-.2559.7871-.644.9351-.1157.0439-.2363.0654-.356.0654ZM526.5654,623.7437c-.7222.0137-1.4824.0215-2.2783.0293-9.481.0947-22.4648.2241-28.9448,11.0352-6.8716,11.4648-.7622,22.8472,2.4229,27.4888,1.0322-14.417,9.8311-24.6528,17.2861-30.8247,4.1372-3.4248,8.2598-5.9785,11.5142-7.7285Z"/>
      </g>
    </g>
  </g>
  <g id="hand">
    <path class="cls-1" d="M1237.8342,1051.0622c-14.8604-18.2335-48.0457-53.6657-60.0874-68.1604-17.2346-20.7454-27.4478-33.831-42.1291-36.7034-14.6814-2.8724-82.0241-14.6814-97.6629-21.0646-15.6388-6.3832-23.6178-13.7239-28.4052-15.958-3.3664-1.571-13.2102-2.6019-20.6327-3.4036-7.4344-.803-18.3048,4.042-42.5609,7.2336-24.2562,3.1916-43.0866-19.7879-48.1931-31.916-5.1066-12.1281,6.7024-30.3202,6.7024-30.3202,0,0-7.0215,1.915-25.852-.3192-36.0651-10.2131-27.4478-41.1716-21.3837-55.6048,6.064-14.4331,45.6399-38.1219,45.6399-38.1219-5.7449-5.3193-20.9592-3.7177-20.9592-3.7177-16.7588,1.3297-72.7373,9.5559-117.9818-.2157-46.8101-10.1097-68.0875-16.9184-94.8969-14.7907-26.8094,2.1277-51.0656,10.2131-76.1728-2.9788-25.1072-13.1919-16.5963-40.4269-10.6387-47.2357,5.9577-6.8087,35.3204-11.9153,35.3204-11.9153,0,0-16.1708-11.9153-15.3197-20.4262.8511-8.5109,7.6598-31.4904,51.9167-36.1715,44.2568-4.681,45.5335-1.2766,80.0028-2.5533,34.4693-1.2766,123.8341-9.7876,154.8989-11.4898s40.0014-.8511,84.2582,2.9788c44.2568,3.8299,59.5765,0,59.5765,0,0,0,2.1277-14.8941-4.2555-30.2138-6.3832-15.3197-34.0437-71.4918-34.8948-87.237-.8511-15.7452-3.4044-63.4064,18.2985-87.6626,21.7029-24.2562,34.4693-18.724,34.4693-18.724,0,0,2.9788,42.5547,9.362,59.151,6.3832,16.5963,42.1291,90.6414,66.3853,117.0253,24.2562,26.3839,61.0659,75.9601,84.0454,113.8337,20.2135,32.5543,44.0441,59.7893,78.5133,84.471,26.0681,18.6661,52.623,33.4379,68.2524,50.7579,0,0,71.4122,79.9434,112.2647,153.6766,40.8525,73.7332-168.5164,156.7148-168.5164,156.7148,0,0-37.6645-42.3138-59.3637-68.9385Z"/>
    <path d="M904.8643,851.7695c-.4941,0-.9229-.3652-.9902-.8682-.0732-.5469.3115-1.0498.8594-1.123,1.3174-.1758,131.9854-17.5957,150.5605-21.6885,5.7168-1.2598,10.1045-4.5215,13.04-9.6963,4.7588-8.3877,4.4971-19.7314,2.8223-24.7568-2.3076-10.1318-11.0527-16.0527-26.0176-17.6914-12.3301-1.3477-25.4414.5674-31.7441,1.4883-2.0166.2949-3.0088.4365-3.5254.4365-22.46,1.1016-31.9111,3.1719-40.249,4.999-2.4824.5439-4.8281,1.0576-7.4434,1.541-.2139.0391-.4336.0078-.6289-.0889-31.1602-15.582-81.0571,2.0996-81.5571,2.2803-.5205.1895-1.0928-.0811-1.2798-.6016-.1875-.5195.0815-1.0918.6011-1.2793.5068-.1826,50.8843-18.0352,82.8286-2.3379,2.4531-.46,4.6895-.9502,7.0518-1.4668,8.4141-1.8438,17.9521-3.9336,40.6279-5.0449.4434-.001,1.6973-.1846,3.2852-.416,13.3994-1.9609,54.165-7.918,59.9746,17.6436,1.7617,5.2715,2.0527,17.3652-3.0068,26.2812-3.2275,5.6885-8.0547,9.2764-14.3496,10.6631-18.6562,4.1113-149.4082,21.542-150.7266,21.7178-.0449.0059-.0889.0088-.1328.0088Z"/>
    <path d="M981.2666,907.335c-.5254,0-.9658-.4102-.9971-.9414-.0322-.5518.3877-1.0244.9395-1.0566,9.332-.5479,69.3809-24.2559,84.46-38.6934,14.1055-13.5059-8.2227-37.3301-8.4492-37.5684-.3809-.4004-.3643-1.0332.0361-1.4141.4014-.3799,1.0342-.3623,1.4131.0352.9844,1.0352,23.9238,25.5117,8.3828,40.3926-14.9414,14.3047-74.6084,38.5918-85.7256,39.2441-.0195.001-.04.002-.0596.002Z"/>
    <path class="cls-2" d="M1012.2092,809.2786c1.3849-4.5338,4.8452-7.44,8.7268-9.8379,4.3843-2.7084,8.9206-5.1724,13.5812-7.3716,4.3828-2.0681,9.5495-3.1156,14.3459-3.6527,3.2288-.3592,6.4896-.4258,9.7306-.2023,7.4151.5115,10.3558,8.7006,10.7128,15.051.4479,7.9684-3.2684,15.9944-10.9254,19.2055-6.5513,2.7474-13.7343,3.7798-20.7814,4.2056-6.2987.3806-13.5534.9727-19.6456-1.014-9.7638-3.1839-5.7644-16.3196-5.7448-16.3837Z"/>
    <path class="cls-2" d="M1025.8267,854.7058s4.4682-15.6388,23.2987-19.4688c8.4045-2.2341,19.503-5.9577,24.1137,3.1916,4.6107,9.1492,2.3766,15.8516-3.9002,20.2135-8.4439,5.8678-19.7609,9.4483-30.032,9.4053-7.8851-.033-15.0152-4.707-13.4801-13.3416Z"/>
    <path class="cls-2" d="M1053.2605,433.1374c-.3392.1305-.7214.1833-1.1539.1355-4.2788-.4724-8.0687-2.7105-10.5348-6.2414-4.681-6.7024-8.0854-22.4476-3.5108-30.3202,4.5746-7.8726,6.7024-13.9367,17.4491-16.4903,5.8896-1.3985,6.2021,4.1032,5.5695,8.5358-1.426,9.9914-2.0548,19.8913-3.3035,29.881-.4031,3.148-.874,6.317-1.7031,9.3851-.4587,1.6974-1.0629,4.4411-2.8125,5.1145Z"/>
    <path d="M815.394,687.9341c-10.2905,0-18.4312-1.333-25.6133-2.5088-5.7236-.937-10.667-1.7466-15.665-1.7466-11.3354,0-81.0874-4.8408-98.2031-6.8154-16.3242-1.8818-57.5117-.0132-57.9263.0059-.5508.0029-1.0195-.4014-1.0449-.9531-.0254-.5513.4014-1.0195.9531-1.0449.4155-.019,41.7627-1.8945,58.2476.0054,17.0825,1.9707,86.6714,6.8022,97.9736,6.8022,5.1606,0,10.1782.8218,15.9883,1.7729,7.1069,1.1636,15.1621,2.4824,25.29,2.4824,18.3848,0,57.8086-1.7266,61.8418-2.937.5322-.1538,1.0864.1416,1.2456.6704.1587.5293-.1416,1.0869-.6704,1.2456-4.5312,1.3594-45.1152,3.021-62.417,3.021Z"/>
    <g>
      <path d="M1147.9033,813.8203c-17.1816,0-34.3652-3.0596-50.5244-9.2568-.5156-.1973-.7734-.7764-.5752-1.292.1982-.5146.7754-.7725,1.292-.5752,38.4258,14.7363,82.7803,11.4775,118.6396-8.7207.4824-.2725,1.0908-.1006,1.3623.3799.2715.4814.1006,1.0918-.3799,1.3623-21.2949,11.9951-45.5488,18.1025-69.8145,18.1025Z"/>
      <path d="M1169.127,952.3311c-.2705,0-.54-.1094-.7373-.3252-.373-.4072-.3457-1.04.0625-1.4121,24.0029-21.9668,41.9512-49.9521,51.9062-80.9297.1699-.5264.7344-.8115,1.2578-.6465.5264.1689.8154.7324.6465,1.2578-10.0605,31.3086-28.2012,59.5918-52.4609,81.793-.1914.1758-.4336.2627-.6748.2627Z"/>
      <path d="M1147.6748,952.5205c-.3174,0-.6289-.1504-.8232-.4307-.3145-.4541-.2012-1.0771.2529-1.3916,8.9824-6.2139,15.0283-16.4102,16.1729-27.2725.0576-.5498.5576-.9473,1.0986-.8896.5498.0576.9482.5498.8896,1.0986-1.2041,11.4346-7.5674,22.167-17.0225,28.708-.1738.1201-.3721.1777-.5684.1777Z"/>
      <path d="M1060.1865,735.1279c-.3105,0-.6152-.1436-.8115-.4141-21.6387-29.9082-31.2979-68.0547-26.501-104.6582.0713-.5474.5664-.9282,1.1211-.8618.5479.0718.9336.5742.8613,1.1216-4.7314,36.103,4.7959,73.7275,26.1396,103.2266.3232.4473.2227,1.0723-.2246,1.396-.1768.1284-.3818.1899-.585.1899Z"/>
      <path d="M974.123,828.79c-.3984,0-.7754-.2402-.9307-.6338-3.0781-7.8242-4.2041-16.377-3.2549-24.7344.0615-.5488.5488-.9512,1.1055-.8809.5488.0615.9434.5576.8809,1.1055-.9111,8.0342.1709,16.2568,3.1299,23.7773.2021.5137-.0508,1.0947-.5645,1.2969-.1201.0469-.2441.0693-.3662.0693Z"/>
      <path d="M996.5039,889.4082c-.3467,0-.6836-.1797-.8682-.502-4.5439-7.9141-6.8174-16.917-6.5742-26.0352.0146-.5527.5215-.9785,1.0264-.9736.5527.0146.9883.4746.9736,1.0264-.2344,8.751,1.9473,17.3916,6.3086,24.9863.2754.4795.1094,1.0898-.3691,1.3652-.1572.0898-.3281.1328-.4971.1328Z"/>
      <path d="M699.9409,717.3809c-.168,0-.3379-.042-.4941-.1313-.48-.2734-.647-.8838-.3735-1.3638,4.77-8.3706,6.5347-18.2158,4.9692-27.7222-.0898-.5449.2793-1.0596.8242-1.1494.5444-.0894,1.0591.2793,1.1494.8242,1.6396,9.9575-.209,20.2695-5.2056,29.0376-.1841.3237-.522.5049-.8696.5049Z"/>
      <path d="M718.6177,660.5757c-.2925,0-.5825-.1279-.7803-.374-.3457-.4307-.2769-1.0601.1538-1.4058,8.0332-6.4487,11.9829-17.5498,9.8286-27.624-.1152-.54.229-1.0713.769-1.187.5386-.1133,1.0713.229,1.187.769,2.3081,10.7954-1.9243,22.6914-10.5327,29.6016-.1846.1484-.4058.2202-.6255.2202Z"/>
      <path d="M791.0854,715.3857c-.2256,0-.4526-.0762-.6396-.2319-.4243-.3535-.4814-.9839-.1279-1.4082,5.0879-6.106,6.7646-14.9272,4.271-22.4731-.1729-.5244.1113-1.0903.6357-1.2637.5259-.1724,1.0903.1123,1.2637.6357,2.7051,8.187.8862,17.7573-4.6343,24.3813-.1978.2373-.4819.3599-.7686.3599Z"/>
      <path d="M793.8945,657.0244c-.168,0-.3389-.0425-.4951-.1318-.4795-.2739-.646-.8848-.3721-1.3643,5.6646-9.9131,7.2812-21.9404,4.4355-32.998-.1377-.5347.1841-1.0796.7192-1.2173.5381-.1377,1.0806.1841,1.2173.7192,2.9746,11.5566,1.2847,24.1274-4.6357,34.4883-.1846.3232-.522.5039-.8691.5039Z"/>
    </g>
    <path d="M887.1733,731.3696c-.0352,0-.0703-.002-.1055-.0054-.5493-.0576-.9478-.5493-.8906-1.0986,1.3569-12.9834.4653-25.9932-2.6514-38.6685-.1318-.5361.1963-1.0781.7324-1.21.5342-.1304,1.0781.1963,1.21.7324,3.1714,12.8999,4.0796,26.1406,2.6982,39.354-.0537.5137-.4878.896-.9932.896Z"/>
    <path d="M881.8413,681.6514c-.3369,0-.666-.1704-.8545-.479-.2876-.4717-.1387-1.0869.3325-1.3745,14.2544-8.6982,23.5107-25.1084,23.5801-41.8066.002-.5522.4385-1.0054,1.0039-.9956.5527.0024.998.4517.9961,1.0044-.0723,17.3765-9.7046,34.4531-24.5381,43.5049-.1626.0991-.3423.1465-.52.1465Z"/>
    <path d="M1441.6074,924.8643c-.3242,0-.6426-.1572-.835-.4482-39.376-59.4521-87.5859-113.6006-88.0684-114.1406-10.8525-12.0264-27.3281-23.0234-44.7715-34.666-7.6113-5.0801-15.4814-10.334-23.3174-15.9443-32.5664-23.3193-56.8633-49.4595-78.7812-84.7573-22.4053-36.9268-59.2695-86.8589-83.9316-113.6841-4.7725-5.1904-10.2832-12.5469-16.3809-21.8643-.3027-.4619-.1729-1.0815.2891-1.3843.4629-.3027,1.082-.1729,1.3848.2896,6.0371,9.2261,11.4814,16.4951,16.1797,21.6055,24.7373,26.9072,61.7061,76.978,84.1631,113.9917,21.7666,35.0547,45.8994,61.0186,78.2412,84.1763,7.8096,5.5918,15.666,10.8359,23.2637,15.9082,17.5498,11.7139,34.126,22.7773,45.1494,34.9932.4873.5449,48.7891,54.7969,88.248,114.373.3047.46.1787,1.0801-.2822,1.3857-.1699.1123-.3613.166-.5508.166Z"/>
    <path d="M1284.4492,1106.5645c-.2773,0-.5537-.1152-.751-.3398-13.876-15.7969-33.2314-38.0801-46.6396-54.5303-8.2119-10.0762-22.3398-25.7578-34.8047-39.5928-10.2275-11.3525-19.8887-22.0762-25.2764-28.5615l-2.501-3.0137c-15.8672-19.1348-25.4443-30.6846-39.0518-33.3467-2.4775-.4844-6.4561-1.2246-11.4336-2.1494-25.625-4.7627-73.3223-13.627-86.4141-18.9707-10.6094-4.3301-17.5928-9.0088-22.6924-12.4248-2.3799-1.5938-4.2588-2.8535-5.7578-3.5527-3.1299-1.4609-12.7295-2.4961-19.7383-3.2529l-.5791-.0625c-3.627-.3936-8.1689.6348-15.0479,2.1904-6.4756,1.4648-15.3447,3.4707-27.2754,5.04-1.5879.209-3.1543.3086-4.6914.3086-22.873.002-39.9863-21.9814-44.5537-32.8281-4.3208-10.2617,2.7266-24.2773,5.6357-29.3477-3.3853.4336-10.8271.874-23.9814-.6865-.0522-.0059-.104-.0166-.1548-.0312-12.1416-3.4375-20.3921-9.5332-24.5234-18.1172-6.1016-12.6787-2.0137-28.1172,2.4902-38.8369,5.5786-13.2783,37.8931-33.6045,44.8013-37.8359-1.2524-.8164-2.9019-1.4668-4.9238-1.9395-.5381-.126-.8721-.6641-.7461-1.2012.126-.5381.6631-.8682,1.2012-.7461,3.0122.7041,5.3359,1.7988,6.9092,3.2539.2305.2139.3477.5244.3145.8379-.0322.3135-.21.5928-.4805.7549-.3926.2354-39.3638,23.6836-45.2319,37.6514-4.3442,10.3398-8.3105,25.1865-2.5317,37.1934,3.8633,8.0283,11.666,13.7607,23.1904,17.04,18.2656,2.1592,25.3252.3555,25.3945.3369.4023-.1035.8252.043,1.0684.3789.2432.334.2568.7842.0312,1.1309-.1152.1777-11.46,17.8926-6.6201,29.3887,4.6895,11.1348,23.083,34.4756,47.1406,31.3125,11.8408-1.5576,20.6582-3.5518,27.0967-5.0078,7.0723-1.5996,11.75-2.6553,15.7031-2.2285l.5791.0625c7.5469.8145,16.9385,1.8281,20.3691,3.4287,1.6387.7646,3.5742,2.0615,6.0254,3.7031,5.0273,3.3691,11.9141,7.9824,22.335,12.2354,12.9023,5.2656,62.29,14.4453,86.0234,18.8564,4.9854.9258,8.9707,1.667,11.4531,2.1523,14.3066,2.7988,24.6104,15.2246,40.207,34.0322l2.5,3.0137c5.3613,6.4541,15.0088,17.1631,25.2236,28.5,12.4805,13.8525,26.626,29.5537,34.8691,39.668,13.3887,16.4268,32.7266,38.6904,46.5908,54.4736.3652.415.3242,1.0469-.0908,1.4111-.1904.167-.4258.249-.6602.249Z"/>
  </g>
  <g id="greens">
    <g>
      <path class="cls-3" d="M651.5581,699.84c14.8279,13.899,26.6253,29.2782,39.2012,45.1022,7.5902,9.5604,17.5959,18.3423,29.7289,19.6849,6.9318.767,14.7246-1.5168,18.3382-7.4817,1.4279-2.3571,2.0436-5.5411.455-7.793-1.2402-1.7579-3.4612-2.4843-5.5429-3.027-5.0959-1.3284-10.3083-2.21-15.5577-2.6311,1.0266,4.5229,4.3938,8.4469,8.7083,10.1485-2.682,1.7326-6.2642,1.5385-9.1898.2596-2.9257-1.2789-5.3251-3.4981-7.5993-5.7393-17.4809-17.2275-30.5324-38.3521-48.6301-55.0018-10.9776-10.0993-24.187-18.4263-38.7467-22.13-10.8218-2.7528-21.1942-2.2558-31.4569,2.1699-7.6356,3.2929-15.0425,7.144-22.0781,11.5788-17.8434,11.2476-34.0247,26.8775-40.9911,47.2408l-6.5936,13.7866s7.1929,6.5935,12.5876-3.5964c2.3913-4.517,7.38-13.8635,15.1103-23.5485-.7612,5.1882-1.3708,11.3962-.5247,14.3576,1.5984,5.5944,5.9941,2.7972,5.9941-2.3978v-18.3125c0-.7778,2.8895-2.9901,3.4776-3.5632,1.266-1.2335,2.5658-2.4325,3.9005-3.5914,2.7395-2.3786,5.6265-4.59,8.6608-6.58,2.8746-1.8853,5.9093-3.4933,9.041-4.8919,0,0-.447-7.2805,11.0537-10.9303,7.189-2.2814,14.3984-5.1207,21.915-6.1226,13.1909-1.7583,22.7206,8.579,31.7196,16.5956,2.3665,2.1082,4.7065,4.2463,7.0189,6.414Z"/>
      <path d="M723.043,765.7656c-.9233,0-1.8169-.0508-2.6646-.1445-10.5327-1.166-20.7617-7.9141-30.4023-20.0571l-3.4565-4.3579c-11.4346-14.4331-22.2373-28.0679-35.6455-40.6367h0c-2.2993-2.1553-4.6543-4.3071-7-6.3965-.96-.855-1.9258-1.7358-2.9009-2.6265-8.208-7.4893-16.6924-15.2358-28.0215-13.7246-5.7593.7676-11.4492,2.6699-16.9521,4.5093-1.6006.5352-3.1973,1.0688-4.793,1.5752-10.6338,3.375-10.3618,9.8506-10.3579,9.916.0254.416-.2095.8042-.5903.9741-3.2876,1.4688-6.1992,3.0439-8.9004,4.8154-2.8994,1.9019-5.7773,4.0884-8.5532,6.4985-1.2871,1.1177-2.5854,2.3125-3.8584,3.5527-.1484.1445-.4326.3877-.7822.6841-.5825.4946-2.0928,1.7764-2.3931,2.2905v18.1846c0,3.3608-1.6807,6.1304-3.9092,6.4424-.667.0967-2.9409.0996-4.0464-3.7695-.6011-2.1035-.5967-5.8252.0098-11.0884-6.5156,8.6968-10.8066,16.8013-12.7505,20.4722-1.8999,3.5884-4.2573,5.6484-7.0073,6.1235-3.8877.668-7.0088-2.1382-7.1396-2.2578-.3242-.2974-.416-.772-.2266-1.1689l6.5684-13.7339c6.1924-18.0474,20.502-34.5439,41.3853-47.708,6.9019-4.3501,14.3765-8.27,22.2153-11.6509,10.1934-4.3955,20.6943-5.1226,32.0996-2.2207,13.4448,3.4199,26.9922,11.1533,39.1772,22.3633,9.7065,8.9302,18.0859,19.2837,26.189,29.2964,7.0542,8.7163,14.3486,17.7295,22.4663,25.729,2.1631,2.1323,4.5083,4.3159,7.2974,5.5356,2.186.9551,4.4995,1.1582,6.4287.6211-3.6548-2.1172-6.3828-5.7485-7.3228-9.8921-.0703-.3101.0107-.6353.2192-.876.2085-.2402.5132-.373.8359-.3418,5.2979.4253,10.5898,1.3203,15.73,2.6602,2.3521.6128,4.7197,1.4512,6.1074,3.418,1.9731,2.7964,1.0083,6.5356-.4165,8.8882-3.6572,6.0371-10.7407,8.1016-16.6387,8.1016ZM615.752,675.6343c10.7515,0,19.1143,7.6323,26.5693,14.4351.9692.8848,1.9292,1.7607,2.8828,2.6104,2.3584,2.1001,4.7261,4.2637,7.0381,6.4307h0c13.5166,12.6704,24.3623,26.3604,35.8452,40.854l3.4546,4.356c9.2974,11.71,19.0732,18.208,29.0562,19.3125,5.6758.627,13.6313-.8301,17.3726-7.0059,1.1123-1.8359,1.9092-4.6914.4937-6.6978-1.0679-1.5137-3.1294-2.1543-4.978-2.6357-4.562-1.1895-9.2466-2.0205-13.9468-2.4751,1.2568,3.6421,4.1157,6.6748,7.7163,8.0938.3486.1377.5913.459.6284.832s-.1377.7354-.4526.9385c-2.7134,1.7529-6.5947,1.8828-10.1328.3359-3.1025-1.3564-5.604-3.6797-7.9009-5.9429-8.1973-8.0786-15.5273-17.1362-22.6167-25.8955-8.0576-9.9565-16.3901-20.2524-25.9888-29.083-11.9419-10.9863-25.1914-18.5581-38.3159-21.8965-10.9619-2.7886-21.0415-2.0957-30.8145,2.1191-7.7441,3.3394-15.1265,7.2109-21.9409,11.5063-20.5142,12.9307-34.5459,29.0859-40.5781,46.7183-.0127.0366-.0273.0728-.0439.1079l-6.2456,13.0591c.9106.6333,2.8013,1.6851,4.8877,1.3174,2.1021-.3691,3.9746-2.0801,5.5659-5.0854,2.186-4.1294,7.3062-13.7993,15.2124-23.7046.2812-.3525.7642-.4722,1.1802-.2935.4141.1802.6567.6157.5908,1.0625-1.0063,6.8599-1.1973,11.6797-.5522,13.9375.4399,1.54,1.1455,2.4336,1.8462,2.3389.8936-.125,2.1865-1.7861,2.1865-4.4619v-18.3125c0-.9106.9136-1.8325,3.0991-3.6875.3032-.2573.5518-.4663.6807-.5918,1.3003-1.2666,2.627-2.4883,3.9429-3.6304,2.8433-2.4688,5.793-4.71,8.7676-6.6606,2.6343-1.728,5.457-3.2725,8.6128-4.7124.1851-2.0654,1.6162-8.0181,11.7275-11.2271,1.5859-.5034,3.1729-1.0337,4.7637-1.5654,5.5918-1.8696,11.374-3.8022,17.3218-4.5952,1.0425-.1392,2.0649-.2051,3.0649-.2051Z"/>
    </g>
    <g>
      <path class="cls-3" d="M525.2445,738.3944s-30.4148.0207-44.4011,42.3791c0,0,1.998,1.998,12.3878,1.998s33.9666-4.4026,38.7619-24.7757c4.7953-20.3731-6.7487-19.6014-6.7487-19.6014Z"/>
      <path d="M493.2314,783.7715c-10.2837,0-12.7129-1.9082-13.0952-2.291-.2671-.2666-.3608-.6621-.2427-1.0205,13.8335-41.895,44.0859-43.0396,45.3145-43.0649.3735-.0229,3.7812-.0967,6.311,2.8872,2.9453,3.4741,3.4321,9.5107,1.4478,17.9434-4.7471,20.165-27.2104,25.5459-39.7354,25.5459ZM482.0449,780.333c1.0645.4795,4.0771,1.4385,11.1865,1.4385,1.312,0,32.2021-.2725,37.7881-24.0049,2.2812-9.6909.7012-14.1538-1.0264-16.1914-1.978-2.3335-4.6572-2.1841-4.6816-2.1831-.0215.0015-.0439.0024-.0649.0024-.2954.001-29.5142.5703-43.2017,40.9385ZM525.2446,738.3945h.0098-.0098Z"/>
    </g>
    <g>
      <path class="cls-3" d="M548.5287,731.6168s-18.0172,24.5039,7.7993,60.8819c0,0,2.7936-.4242,8.954-8.7907,6.1604-8.3664,16.5946-29.9622,3.0324-45.9034-13.5623-15.9412-19.7856-6.1879-19.7856-6.1879Z"/>
      <path d="M556.3281,793.499c-.3208,0-.6265-.1543-.8154-.4209-25.5356-35.9824-8.5161-61.0234-7.8105-62.0244.2104-.3174,2.1655-3.1025,6.0669-3.3701,4.5356-.3125,9.6938,2.8755,15.3071,9.4731,13.4243,15.7798,4.4375,37.0581-2.9888,47.144-6.0972,8.2803-9.0742,9.1055-9.6089,9.1865-.0503.0078-.1006.0117-.1504.0117ZM554.3667,729.6631c-.1421,0-.2832.0044-.4229.0132-3.042.1914-4.5137,2.3896-4.5752,2.4829-.0093.0146-.0229.0347-.0332.0488-.1743.2383-17.0405,24.1055,7.3506,59.0615,1.0176-.5723,3.5752-2.4297,7.791-8.1543.7778-1.0566,18.8735-26.0928,3.0757-44.6626-4.9019-5.7617-9.4487-8.7896-13.186-8.7896ZM548.5288,731.6167h.0098-.0098Z"/>
    </g>
    <g>
      <g>
        <path class="cls-3" d="M1434.503,983.366c9.7093,1.2023,18.9527,5.8734,25.6793,12.9772-10.265,2.0019-34.6653,6.5102-43.9436-.1587-14.2001-10.2064,12.2579-13.5623,18.2643-12.8185Z"/>
        <path d="M1432.3262,1000.7217c-6.8262,0-12.8584-.9844-16.6719-3.7256-3.7822-2.7188-5.2197-5.3242-4.2725-7.7441,2.3174-5.918,19.0479-7.4043,23.2441-6.8779h0c9.8672,1.2217,19.4473,6.0625,26.2832,13.2812.25.2646.3369.6455.2256.9922-.1113.3477-.4023.6074-.7607.6768-8.5254,1.6621-18.9863,3.3975-28.0479,3.3975ZM1432.4854,984.2646c-5.7852,0-17.7412,1.8867-19.2412,5.7158-.7119,1.8193,1.5527,3.9365,3.5781,5.3926,8.6045,6.1846,31.5254,2.2236,41.3311.3447-6.4072-6.1602-14.9697-10.2695-23.7734-11.3594h0c-.5049-.0625-1.1484-.0938-1.8945-.0938Z"/>
      </g>
      <g>
        <path class="cls-3" d="M1310.1899,1023.1844c6.1584,4.5485,12.5112,9.1924,19.911,11.1566,6.9692,1.8499,27.3709-1.2873,15.3615-9.5549-8.9589-6.1676-25.5998-4.6682-35.2725-1.6017Z"/>
        <path d="M1335.1895,1035.8672c-2.0713,0-3.96-.1924-5.3457-.5596-7.6807-2.0391-14.3574-6.9688-20.248-11.3184-.3027-.2236-.4541-.5977-.3926-.9688.0615-.3701.3262-.6758.6846-.7891,9.2559-2.9336,26.5186-4.8945,36.1416,1.7314,3.54,2.4365,4.8262,4.7793,3.8223,6.9609-1.5742,3.4229-8.8398,4.9434-14.6621,4.9434ZM1312.4121,1023.5801c5.3408,3.916,11.3145,8.0342,17.9453,9.7939,4.7598,1.2646,16.2041-.085,17.6777-3.2861.7041-1.5303-1.665-3.4629-3.1406-4.4785-8.3359-5.7393-23.5254-4.4199-32.4824-2.0293Z"/>
      </g>
      <g>
        <path class="cls-3" d="M1330.1819,802.0438c10.9348-1.8555,22.1202-.0167,33.0581,1.8203-.5627-.0945-7.4314,7.7143-8.5191,8.5749-3.1676,2.5064-6.6291,4.639-10.2747,6.3758-7.4217,3.5358-15.64,5.4335-23.8642,5.4358-6.6554.0018-19.7929-.5104-12.931-9.8069,5.1385-6.9616,14.2322-10.9918,22.5309-12.3999Z"/>
        <path d="M1320.5654,825.251c-6.1562,0-13.4619-.4902-15.3857-4.3018-.9629-1.9072-.4023-4.2959,1.667-7.0996,4.6816-6.3428,13.3418-11.124,23.168-12.792h0c11.2158-1.9014,22.4893-.0107,33.3916,1.8203h0c.5449.0918.9121.6074.8203,1.1523-.0645.3818-.3369.6768-.6826.7871-.6699.4834-3.25,3.2441-4.8125,4.916-1.7979,1.9219-2.9229,3.1191-3.3906,3.4893-3.1787,2.5166-6.6992,4.7012-10.4648,6.4941-7.5918,3.6182-15.9922,5.5312-24.2939,5.5342h-.0166ZM1330.3486,803.0303h0c-9.3271,1.582-17.5117,6.0713-21.8926,12.0068-1.585,2.1465-2.0859,3.833-1.4912,5.0107,1.0732,2.126,5.6504,3.2031,13.6045,3.2031h.0127c8.0049-.0029,16.1084-1.8496,23.4346-5.3389,3.6299-1.7295,7.0225-3.835,10.083-6.2578.374-.2959,1.8604-1.8848,3.1709-3.2871,1.6963-1.8154,2.8613-3.0439,3.6865-3.8711-10.0742-1.6777-20.4375-3.1924-30.6084-1.4658ZM1363.6055,804.7764h0Z"/>
      </g>
      <g>
        <path class="cls-3" d="M1210.0684,911.1017c-6.16-.9219-12.6755-.5433-18.2698,2.1952-3.7998,1.8601-7.0141,4.7163-10.6249,6.9209s-7.9659,3.7737-12.0469,2.6586c6.986,3.0716,14.0239,6.1607,21.4634,7.8618,7.4395,1.7011,15.3912,1.9464,22.5767-.6243,3.9197-1.4023,13.6763-6.523,13.7476-11.6086.0736-5.2489-13.0814-6.8402-16.8461-7.4037Z"/>
        <path d="M1201.4316,933.0205c-3.5361,0-7.249-.4346-11.0645-1.3076-7.5635-1.7295-14.7207-4.877-21.6426-7.9219-.4795-.2109-.7148-.7559-.54-1.249s.6992-.7656,1.2061-.6309c4.0508,1.1064,8.3594-.7734,11.2617-2.5469,1.4053-.8584,2.7861-1.8438,4.1221-2.7959,2.0752-1.4814,4.2217-3.0127,6.585-4.1699,5.2285-2.5586,11.748-3.3477,18.8574-2.2861h0l.7129.1045c5.1064.7393,17.0664,2.4707,16.9844,8.3018-.0869,6.1602-11.3887,11.4561-14.4102,12.5371-3.6572,1.3086-7.7305,1.9648-12.0723,1.9648ZM1174.2822,924.0322c5.3496,2.2891,10.8486,4.4316,16.5303,5.7314,8.127,1.8574,15.7393,1.6543,22.0176-.5908,4.3916-1.5713,13.0254-6.4717,13.084-10.6816.0381-2.7051-5.0996-4.8223-15.2715-6.2949l-.7227-.1055c-6.7051-1.0039-12.8184-.2764-17.6816,2.1045-2.2148,1.084-4.293,2.5664-6.3027,4.001-1.3633.9727-2.7744,1.9795-4.2402,2.875-2.5605,1.5635-5.0596,2.5566-7.4131,2.9609Z"/>
      </g>
      <g>
        <path class="cls-3" d="M885.4588,549.4631c6.7541-10.4699,19.2291-16.43,25.234-27.3468,3.3065,14.1519,2.1542,29.3117-3.2534,42.8012-2.0578,5.1334-4.8038,10.1391-8.9868,13.757-19.5774,16.933-20.0475-18.2773-12.9939-29.2114Z"/>
        <path d="M889.3291,584.2012c-1.9302,0-3.3896-.7476-4.459-1.6768-6.9692-6.0552-5.1978-25.9336-.2515-33.6035h0c3.2671-5.0645,7.8599-9.1138,12.3013-13.0298,4.8242-4.2534,9.8135-8.6519,12.8965-14.2568.1982-.3628.5977-.5679,1.0127-.5088.4102.0566.7432.3599.8369.7632,3.3477,14.3286,2.1768,29.7422-3.2988,43.4009-2.5664,6.4033-5.5088,10.897-9.2603,14.1411-4.1226,3.5659-7.3286,4.77-9.7778,4.7705ZM910.2422,524.7866c-3.2236,4.8677-7.6758,8.7925-11.9995,12.605-4.3394,3.8257-8.8267,7.7817-11.9434,12.6133h0c-4.8872,7.5757-5.7422,26.123-.1172,31.0098,2.6611,2.312,6.5693,1.269,11.6162-3.0967,3.5015-3.0278,6.269-7.2769,8.7134-13.3726,5.0137-12.5083,6.3154-26.5303,3.7305-39.7588ZM885.459,549.4629h.0098-.0098Z"/>
      </g>
      <g>
        <path class="cls-3" d="M829.9496,680.8942c-3.9487-7.0843-9.3784-13.3386-15.8377-18.2434-5.31,11.5997-4.869,25.6702,1.1569,36.9146,3.0748,5.7375,13.7449,14.082,17.8727,4.6207,3.2679-7.4905.5632-16.5551-3.1919-23.2919Z"/>
        <path d="M827.4922,709.4692c-5.187,0-11.0068-5.5171-13.1045-9.4316-6.1514-11.4775-6.6055-25.9629-1.1851-37.8027.1265-.2764.3711-.48.6655-.5537.2949-.0742.6064-.0103.8486.1733,6.5391,4.9653,12.1089,11.3809,16.1064,18.5527h0c2.3247,4.1709,7.2935,14.876,3.2349,24.1787-1.6973,3.8906-4.3501,4.7998-6.2764,4.8779-.0962.0034-.1929.0054-.2896.0054ZM814.5127,664.229c-4.6216,11.0591-4.0244,24.2988,1.6377,34.8643,1.936,3.6123,7.2578,8.5532,11.5508,8.3721,1.9712-.0796,3.4937-1.3174,4.5239-3.6792,3.7007-8.4834-.9692-18.4946-3.1489-22.4053-3.6577-6.562-8.6768-12.4688-14.5635-17.1519Z"/>
      </g>
      <g>
        <path class="cls-3" d="M1226.7444,670.4342c6.126,12.0397,17.5863,21.2394,30.6659,24.6168,3.4673.8953,7.278,1.3685,10.5257-.1406,2.8305-1.3153,5.2238-5.0783,4.6358-8.2914-.5821-3.1807-4.6084-4.8966-7.1092-6.3084-7.5537-4.2644-15.8403-7.2256-24.3817-8.7338-2.4402-.4309-4.9015-.7433-7.3722-.9333-.7311-.0562-6.7834.1462-6.9642-.2093Z"/>
        <path d="M1263.1006,696.8872c-2.1934,0-4.2871-.4414-5.9404-.8682-13.3496-3.4473-25.0518-12.8398-31.3047-25.127-.001-.0015-.002-.0034-.0029-.0049-.25-.4922-.0537-1.0942.4385-1.3447.3066-.1553.6562-.1387.9355.0156.6885.1172,3.3916.0928,4.7246.0825,1.0352-.0093,1.5889-.0127,1.834.0059,2.4834.1909,4.9971.5088,7.4697.9453,8.7158,1.5391,17.0264,4.5161,24.6992,8.8481.3311.187.6895.3789,1.0635.5796,2.5098,1.3481,5.9473,3.1938,6.5371,6.4194.7041,3.8389-2.1191,7.9482-5.1982,9.3779-1.6992.7905-3.5098,1.0703-5.2559,1.0703ZM1228.5234,671.6377c6.1758,10.9692,16.9395,19.2954,29.1367,22.4448,4.248,1.0972,7.3789,1.0728,9.8535-.0791,2.3467-1.0898,4.5879-4.4023,4.0742-7.2041-.417-2.2788-3.2451-3.7974-5.5166-5.0176-.3867-.208-.7578-.4067-1.1006-.6006-7.4746-4.2197-15.5713-7.1201-24.0635-8.6196-2.4092-.4253-4.8564-.7349-7.2744-.9209-.1748-.0146-.9326-.0073-1.6641-.0005-1.501.0142-2.6143.0166-3.4453-.0024ZM1227.6279,669.9663c.0029.0049.0049.0098.0078.0142v.0005c-.0029-.0049-.0049-.0098-.0078-.0146Z"/>
      </g>
    </g>
    <g>
      <g>
        <path class="cls-3" d="M1455.6076,897.7805c-.626-8.6244-3.1645-17.3424-8.3037-24.5995-1.3043-1.8097-2.6875-3.4728-4.3313-5.0817-1.6493-1.6056-3.5021-2.9629-5.4597-4.0843-3.9212-2.2439-8.2345-3.5871-12.5947-4.1347-4.3626-.5478-8.794-.3532-13.0686.6205-4.2605,1.0065-8.3791,2.7988-11.9147,5.4782-.5363.4084-.8384,1.0926-.724,1.8049.1656,1.0298,1.1346,1.7305,2.1644,1.5649l.9099-.1463c4.1694-.6701,7.9769-.4556,11.4777.3727,3.4838.7816,6.6247,2.2214,9.1925,3.8802,12.6661,8.1825,7.3178,29.11-2.932,50.6023-2.9713-.1818-5.9851.2783-8.7519,1.3729-.9532.377-1.8772.8277-2.7584,1.3517-.5619.334-1.9255,1.7465-2.5029,1.787,3.6638-.2565,7.3923.548,10.6348,2.2701-11.0686,21.3462-25.62,41.9865-30.7908,49.9607-12.5277,19.3195-26.3512,37.8187-41.5954,55.083-20.1095,22.7742-43.3506,43.5437-66.432,63.2635-3.8935,3.3264-9.2726,11.6524-4.6987,16.7072,5.3557,5.9188,17.065-.1035,22.2294-3.2637,13.906-8.5096,26.5676-20.6935,38.8448-31.3697,12.4685-10.8426,24.2279-22.4873,35.5072-34.5642,5.2172-5.607,10.3016-11.3376,15.2628-17.1735,1.2461-.2147,2.4737-.5346,3.6568-.9775.9599-.3593,1.8923-.7931,2.7828-1.3004.5679-.3238,1.9575-1.7108,2.5356-1.7404-1.7504.0898-3.5079-.0751-5.2193-.4519,4.4256-5.326,8.7519-10.7354,12.964-16.2329,9.9607-13.1962,19.2964-26.8609,27.9587-40.9378,2.2142-3.4895,4.2841-7.0667,6.3697-10.6339,2.1012-3.5575,4.1701-7.1295,6.1428-10.799,3.985-7.3015,7.5926-14.9714,10.1332-23.1245,1.2818-4.0698,2.2586-8.2556,2.8658-12.5321.603-4.2914.7536-8.6418.4449-12.9717Z"/>
        <path d="M1279.4277,1119.3438c-2.7012,0-5.1895-.7725-7.041-2.8193-1.4727-1.627-2.1426-3.6445-1.9912-5.9951.3164-4.9287,4.2295-9.9629,6.7822-12.1436,22.3262-19.0742,45.8145-39.9287,66.3311-63.165,14.6494-16.5898,28.6143-35.082,41.5068-54.9648.9609-1.4824,2.2451-3.4004,3.7705-5.6787,6.6084-9.8721,17.5908-26.2783,26.502-43.2959-2.8643-1.3271-6.1016-1.9287-9.207-1.7148-.5742.0381-1.0283-.376-1.0674-.9268-.0371-.5215.333-.9785.8398-1.0576.2432-.1113.8389-.6172,1.1641-.8936.3809-.3232.71-.6025.9854-.7656.9111-.543,1.8877-1.0215,2.9004-1.4219,2.6611-1.0537,5.5723-1.5566,8.502-1.4727,12.1797-25.7568,13.1934-42.1533,3.0078-48.7334-2.7246-1.7588-5.792-3.0537-8.8691-3.7441-3.5869-.8477-7.3164-.9707-11.1006-.3613l-.9092.1465c-1.584.2588-3.0576-.8203-3.3105-2.3926-.1689-1.0547.2549-2.1123,1.1055-2.7598,3.5039-2.6553,7.6387-4.5576,12.291-5.6562,4.3691-.9951,8.8848-1.21,13.4229-.6396,4.6953.5898,9.0576,2.0225,12.9668,4.2588,2.1113,1.21,4.0156,2.6357,5.6602,4.2363,1.5947,1.5605,3.0068,3.2168,4.4453,5.2129,4.8613,6.8652,7.7949,15.5459,8.4893,25.1123v.001c.3135,4.3867.1611,8.8223-.4512,13.1816-.5977,4.207-1.5742,8.4775-2.9023,12.6943-2.2764,7.3047-5.5205,14.7109-10.209,23.3027-2.1094,3.9229-4.2979,7.6758-6.1602,10.8291l-.5889,1.0078c-1.8594,3.1846-3.7832,6.4775-5.7969,9.6533-8.6201,14.0078-18.0449,27.8076-28.0059,41.0039-3.791,4.9492-7.7871,9.9688-11.8955,14.9453,1.1123.1475,2.2148.1963,3.2988.1387.0166.001.0361-.001.0547-.001.5293,0,.9707.415.998.9492.0264.5225-.3525.9717-.8613,1.041-.2461.1064-.8516.6025-1.1816.8721-.3848.3154-.7178.5879-.9961.7461-.9258.5273-1.9102.9873-2.9277,1.3682-1.0889.4082-2.2568.7314-3.4766.9619-4.9697,5.8369-10.0352,11.5322-15.0605,16.9346-12.3604,13.2334-23.999,24.5635-35.584,34.6377-2.4062,2.0928-4.8281,4.2432-7.2705,6.4131-10.0566,8.9316-20.4551,18.168-31.709,25.0537-3.499,2.1416-10.4941,5.9014-16.4512,5.9014ZM1409.0947,927.6006c2.7871.2412,5.5537,1.0459,8.0195,2.3555.4844.2568.6719.8564.4189,1.3428-9.042,17.4385-20.3369,34.3105-27.0859,44.3906-1.5186,2.2686-2.7969,4.1787-3.7539,5.6543-12.9463,19.9648-26.9707,38.5371-41.6846,55.2012-20.5986,23.3281-44.1504,44.2393-66.5322,63.3623-2.7666,2.3633-5.8398,6.9346-6.085,10.751-.1152,1.791.3818,3.3135,1.4775,4.5244,5.0732,5.6064,17.3301-1.2217,20.9668-3.4453,11.1016-6.7939,21.4326-15.9707,31.4238-24.8447,2.4482-2.1738,4.874-4.3291,7.2861-6.4268,11.5322-10.0283,23.1221-21.3105,35.4336-34.4922,5.082-5.4629,10.207-11.2295,15.2314-17.1387.1514-.1787.3613-.2979.5918-.3379,1.2266-.2119,2.3965-.5244,3.4756-.9287.8945-.335,1.7607-.7373,2.5742-1.1963-.7764-.083-1.5576-.2109-2.3389-.3828-.3408-.0752-.6182-.3223-.7314-.6523s-.0459-.6953.1768-.9629c4.4785-5.3896,8.832-10.8408,12.9395-16.2031,9.918-13.1396,19.3076-26.8867,27.9014-40.8535,2.002-3.1553,3.915-6.4326,5.7656-9.6016l.5918-1.0127c1.8545-3.1396,4.0312-6.8711,6.126-10.7676,4.627-8.4795,7.8223-15.7695,10.0586-22.9492,1.2969-4.1152,2.249-8.2783,2.8311-12.375.5928-4.2188.7393-8.5127.4375-12.7588h0c-.668-9.2021-3.4766-17.5332-8.123-24.0938-1.3652-1.8945-2.7051-3.4678-4.2139-4.9443-1.5234-1.4824-3.293-2.8057-5.2578-3.9326-3.6777-2.1035-7.79-3.4531-12.2227-4.0098-4.3057-.541-8.5869-.3369-12.7217.6035-4.3711,1.0322-8.2539,2.8164-11.5332,5.3008-.2607.1992-.3916.5254-.3398.8496.0781.4834.5303.8145,1.0176.7354l.9102-.1465c4.043-.6484,8.0352-.5195,11.8672.3877,3.293.7383,6.584,2.126,9.5049,4.0127,11.2451,7.2637,10.3789,24.7168-2.5723,51.873-.1748.3682-.5615.5869-.9629.5674-2.8535-.1719-5.7266.2773-8.3232,1.3047-.8887.3516-1.7441.7686-2.5449,1.2402ZM1393.998,1026.4639h.0029-.0029ZM1405.9395,927.5723h-.001.001Z"/>
      </g>
      <g>
        <path class="cls-3" d="M1294.9395,887.1213c.9599-.3593,1.8922-.7928,2.7828-1.3004.5679-.3236,1.9575-1.7106,2.5355-1.7402-3.9364.2022-7.917-.8311-11.2797-2.8854,9.3368-20.2966,16.4829-41.677,21.112-63.622,2.2854-11.5631,4.2342-23.2102,5.1473-34.9813l.3807-4.4051c.1106-1.4699.1604-2.9465.2422-4.4187.1432-2.9465.3091-5.8899.4012-8.8355.0812-2.9467.0289-5.9018.0444-8.848-.0026-2.9555.0162-5.8682-.1465-8.8792-.4158-11.9378-1.6955-24.114-4.2069-36.3832-1.2022-6.1204-2.8614-12.2752-4.744-18.3831-1.0473-3.0601-2.0101-6.0946-3.2382-9.1303-.5939-1.5163-1.1534-3.0263-1.8084-4.5251l-2.0267-4.485c-5.4489-11.9085-12.9752-23.3339-22.1797-33.0679-2.3412-2.4381-4.7527-4.7962-7.2738-6.9938-16.0121-14.2046-36.9781-23.2697-58.5329-23.28-9.0025-.0043-17.7251,1.6993-26.3527,4.1552-5.9619,1.6971-19.6159,11.4136-6.3165,14.1167,4.4282.9,9.3328-1.6026,13.3943-3.02,49.122-17.142,78.6386,51.7902,83.6993,89.1957.6995,5.1706,1.0564,10.396,1.3619,15.6207.2024,5.2356.3452,10.4785.2296,15.7333.0039,2.6248-.1654,5.2559-.2638,7.8842-.043.8718-.0752,1.7443-.1096,2.6166-.8692.2156-1.7248.4848-2.557.814-.9531.377-1.8772.8277-2.7583,1.3517-.5619.334-1.9255,1.7465-2.503,1.787,2.5554-.1788,5.1405.1647,7.5722.969-.0077.1151-.0101.2305-.0183.3457l-.6388,7.8677c-.114,1.3106-.195,2.6242-.3359,3.9321l-.4686,3.9189-.9356,7.8377-1.2288,7.7974-.6147,3.8982c-.2101,1.2984-.4954,2.5839-.7394,3.8765l-1.5162,7.7459c-4.2749,20.6098-10.5392,40.8041-18.5134,60.2933-7.9657,19.0261-17.6278,37.3364-28.813,54.6761-8.0559,9.6378-16.092,19.2923-24.1094,28.9623-7.1479,8.6213-16.0294,15.8659-21.6774,25.6898-2.4089,4.1898-4.7471,9.4069-3.1296,14.2985,1.8774,5.6774,10.0836,11.4681,16.0054,8.8032,8.5109-3.83,41.84-38.6136,53.409-52.4793,1.7995-2.1566,3.6945-4.2356,5.526-6.3771,14.0371-16.7411,25.9668-35.3211,35.8284-54.9887,3.1547.3448,6.3935-.0457,9.3647-1.158Z"/>
        <path d="M1187.582,1003.7861c-1.583,0-3.2646-.3721-4.9512-1.1133-4.0488-1.7812-7.5752-5.4131-8.7744-9.0371-1.7725-5.3594.7861-10.8916,3.2119-15.1113,3.7402-6.5039,8.918-11.9424,13.9258-17.2012,2.6445-2.7773,5.3799-5.6504,7.8496-8.6289,8.0059-9.6562,16.1045-19.3857,24.0723-28.918,11.1494-17.291,20.8037-35.6162,28.6963-54.4678,8.0576-19.6914,14.2686-39.918,18.457-60.1104l1.5146-7.7354c.0869-.4629.1816-.9326.2754-1.4014.1631-.8125.3262-1.625.458-2.4424l1.8418-11.6914,1.3994-11.7207c.0908-.832.1562-1.6777.2217-2.5244.0361-.458.0713-.916.1113-1.374l.6006-7.4062c-2.1074-.6025-4.3164-.8379-6.4473-.6934-.0156-.0059-.0488.0029-.0732.0029-.5205,0-.96-.4033-.9971-.9307-.0361-.5215.335-.9775.8428-1.0576.2432-.1104.8398-.6172,1.165-.8936.3799-.3232.707-.6016.9824-.7646.915-.5439,1.8916-1.0225,2.9014-1.4219.6279-.248,1.2822-.4697,1.9541-.6602.0244-.6309.0498-1.2607.0811-1.8896.0283-.751.0625-1.5137.0977-2.2754.082-1.8271.168-3.7158.165-5.5586.1211-5.5073-.0479-11.0229-.2285-15.6958-.2754-4.6982-.6299-10.1792-1.3535-15.5254-3.2275-23.8599-18.4463-67.9087-45.543-84.5322-11.5186-7.0664-23.9111-8.3628-36.8359-3.853-.7666.2676-1.5635.5742-2.3818.8892-3.5967,1.3838-7.6738,2.9521-11.541,2.1665-4.1738-.8481-6.3369-2.4897-6.4287-4.8779-.1758-4.5742,8.2217-9.9141,12.6709-11.1807,10.0488-2.8604,18.5-4.1934,26.5898-4.1934h.0371c20.7734.0098,42.3496,8.5869,59.1963,23.5322,2.3203,2.022,4.7197,4.3296,7.3311,7.0493,9.0156,9.5332,16.748,21.0615,22.3672,33.3442l2.0293,4.4888c.5098,1.168.9639,2.3423,1.4023,3.478l.4258,1.0947c.9639,2.3818,1.7793,4.8052,2.5684,7.1489.2266.6729.4531,1.3467.6846,2.022,2.1211,6.8813,3.6816,12.9277,4.7793,18.5142,2.3594,11.5278,3.7822,23.8242,4.2246,36.5415.1475,2.7129.1475,5.4082.1475,8.0156v.8975c-.0049,1-.0029,1.9941,0,2.9893.0049,1.9277.0098,3.9219-.0439,5.8867-.0723,2.2764-.1865,4.5479-.3008,6.8213l-.1016,2.0361c-.0293.5156-.0537,1.0264-.0781,1.5361-.0469.9697-.0938,1.9404-.166,2.9082l-.3818,4.416c-.792,10.2129-2.3848,21.0371-5.1621,35.0898-4.5381,21.5146-11.5361,42.708-20.8047,63.0176,3.0322,1.6592,6.5273,2.4658,9.9346,2.2979.0156-.001.0381-.002.0576-.002.5293,0,.9707.415.998.9492.0264.5225-.3525.9717-.8613,1.041-.2461.1064-.8525.6035-1.1836.874-.3848.3145-.7168.5859-.9932.7441-.9268.5273-1.9111.9873-2.9287,1.3682h0c-2.8818,1.0791-6.0264,1.5156-9.1279,1.2803-10.1182,20.0674-22.1094,38.4248-35.6494,54.5723-.7773.9082-1.5596,1.7988-2.3408,2.6885-1.0723,1.2217-2.1436,2.4414-3.1836,3.6875-11.0635,13.2588-44.9092,48.7637-53.7666,52.75-1.1133.501-2.3438.75-3.6396.75ZM1273.0547,760.2441c1.624.1406,3.2471.4727,4.8037.9873.4336.1426.7148.5615.6846,1.0166l-.0195.3545-.6387,7.873c-.04.457-.0752.9102-.1104,1.3623-.0674.8662-.1348,1.7324-.2285,2.5957l-1.4053,11.7676-1.8477,11.7324c-.1377.8467-.3047,1.6836-.4727,2.5205-.0928.4619-.1855.9238-.2725,1.3857l-1.5176,7.7539c-4.2158,20.3232-10.4629,40.667-18.5693,60.4795-7.9492,18.9863-17.6709,37.4336-28.8984,54.8389-.0215.0342-.0459.0674-.0723.0996-7.9785,9.5449-16.0898,19.2881-24.1074,28.96-2.5127,3.0303-5.2725,5.9287-7.9404,8.7305-4.9268,5.1738-10.0195,10.5234-13.6396,16.8184-2.2188,3.8594-4.5703,8.8799-3.0479,13.4873,1.0156,3.0703,4.1748,6.292,7.6816,7.834,2.54,1.1172,5.0127,1.248,6.9648.3701,8.0059-3.6025,40.9082-37.6543,53.0518-52.207,1.0498-1.2588,2.1328-2.4922,3.2168-3.7256.7754-.8838,1.5518-1.7666,2.3164-2.6611,13.5713-16.1855,25.583-34.6201,35.6953-54.7871.1875-.373.5879-.5908,1.002-.5459,3.0225.3301,6.0996-.0508,8.9053-1.1006h0c.8926-.334,1.7559-.7354,2.5684-1.1924-3.0557-.3232-6.0625-1.332-8.7002-2.9434-.4326-.2646-.5986-.8105-.3867-1.2715,9.3955-20.4258,16.4746-41.7607,21.041-63.4102,2.7598-13.96,4.3428-24.7129,5.1289-34.8525l.3818-4.4141c.0703-.9385.1162-1.8916.1621-2.8438.0244-.5146.0488-1.0293.0781-1.5439l.1006-2.0322c.1143-2.2607.2285-4.5195.2988-6.7793.0537-1.9316.0488-3.9092.0439-5.8232-.0029-1-.0049-2,0-2.998v-.8936c0-2.6992,0-5.2485-.1445-7.9268-.4404-12.625-1.8496-24.8105-4.1885-36.2368-1.085-5.5249-2.6289-11.5049-4.7207-18.2896-.2217-.6489-.4502-1.3257-.6777-2.002-.7793-2.3159-1.5859-4.7104-2.5312-7.0474l-.4326-1.1133c-.4316-1.1162-.877-2.27-1.3643-3.3872l-2.0225-4.4727c-5.5273-12.0815-13.1338-23.4224-21.9951-32.793-2.5635-2.6709-4.9219-4.9385-7.2041-6.9268-16.4922-14.6309-37.585-23.0244-57.876-23.0342h-.0361c-7.9004,0-16.1768,1.3086-26.043,4.1172-4.3057,1.2256-11.3359,6.1265-11.2188,9.1797.0645,1.6777,2.6611,2.5547,4.8281,2.9951,3.293.6675,7.082-.7871,10.4248-2.0732.8389-.3228,1.6553-.6367,2.4414-.9111,13.5176-4.7168,26.4844-3.3589,38.54,4.0366,27.8818,17.106,43.0723,60.7842,46.4795,85.9692.7324,5.416,1.0898,10.9419,1.3682,15.6963.1836,4.7227.3535,10.2764.2314,15.8135.0029,1.8662-.084,3.7788-.167,5.6279-.0342.7578-.0693,1.5146-.0977,2.2715-.0361.749-.0654,1.4854-.0938,2.2227l-.0156.3965c-.0176.4453-.3271.8252-.7588.9316-.8418.208-1.6592.4678-2.4287.7725-.8867.3506-1.7432.7676-2.5479,1.2412ZM1300.3086,885.0801h0c.002,0,.0049-.001.0068-.001-.0039-.001-.0068,0-.0068.001ZM1269.793,760.2344h0ZM1269.9033,760.2139c-.002.001-.0029.001-.0049.001.002,0,.0068-.001.0049-.001h0Z"/>
      </g>
      <g>
        <path class="cls-3" d="M931.8857,651.6419c.2428-2.9887.3181-5.9881.2173-8.9779-.3733-10.5589-2.8436-21.0349-7.3454-30.6161-4.4816-9.6034-11.1472-18.1669-19.1556-24.9921-7.9942-6.8761-17.3364-12.0538-27.2356-15.4404-9.8998-3.3957-20.4028-5.0096-30.8595-4.6204-10.4681.3875-20.7793,2.8018-30.3314,6.866-9.5475,4.0916-18.331,9.8036-26.0033,16.6923-1.922,1.7189-3.7727,3.5158-5.5403,5.3897-1.7818,1.8601-3.4717,3.8063-5.0867,5.8096-1.0733,1.3383-2.1079,2.7064-3.1036,4.1014,0,0-8.6749,7.2433,0,8.1331,8.6749.8898,11.3136-6.0037,23.8245-13.4084,3.6613-2.1669,7.7696-3.1462,11.6631-4.245,2.1219-.5696,4.1882-1.129,6.2553-1.5884,2.0785-.4307,4.1345-.7998,6.1831-1.0452,8.1237-1.1472,15.9755-.7778,22.9002.6683,7.0095,1.4727,13.6335,4.0498,19.4648,7.4594,5.8168,3.4283,10.8686,7.5694,14.6787,12.1253.9719,1.117,1.8435,2.2771,2.6707,3.4294.3791.5996.7982,1.1639,1.1415,1.7677.3883.5731.7222,1.1699,1.0716,1.7496.6617,1.2086,1.2499,2.3121,1.739,3.5179.4996,1.1956,1.0212,2.3832,1.4178,3.6491.2309.6113.386,1.2699.5912,1.8945l.4906,1.9439c.3399,1.2904.5825,2.6215.7819,3.9544.3696,2.6742.5779,5.3765.504,8.0396-.1396,5.326-1.224,10.3979-3.0095,14.5889-.4543,1.0503-.9093,2.0622-1.4328,3.0139l-.3878.7125-.4154.6834c-.2773.4655-.6773.9853-.988,1.4913-1.3942,2.0388-3.1114,4.2019-5.3272,6.41-2.1603,2.2544-4.7588,4.5778-7.728,6.9436-2.9321,2.4203-6.2815,4.8075-9.8667,7.3299-3.5901,2.533-7.4667,5.0283-11.6485,7.8328l-6.4272,4.2596-3.3069,2.2687-3.3728,2.347c-4.5524,3.1604-9.1798,6.6904-13.8669,10.532-4.6355,3.9085-9.3305,8.1597-13.7311,12.9968-1.1034,1.197-2.1836,2.4706-3.2611,3.7041-1.0674,1.2678-2.1137,2.5858-3.1475,3.8846-2.1442,2.7797-4.1497,5.7002-5.9648,8.6776-1.8319,2.9763-3.437,6.0805-4.894,9.2514-.1703.3716-.3299.7487-.4954,1.1227-1.8351.1926-3.6445.629-5.3586,1.3069-.9531.377-1.8772.8279-2.7583,1.3519-.5618.334-1.9255,1.7465-2.5029,1.7867,2.826-.1976,5.6856.2491,8.336,1.2476-.353.9863-.6931,1.9787-1.0061,2.9833-2.1386,6.7063-3.4454,13.8061-3.6737,21.123-.1487,7.3128.8234,14.8476,3.1826,21.9652.5758,1.7809,1.313,3.5116,2.0744,5.2087.4052.8428.8112,1.677,1.2322,2.503.4559.8257.9072,1.6482,1.3799,2.4499,1.914,3.1939,4.0986,6.1039,6.5042,8.7272,2.4558,2.5908,5.1175,4.8927,7.9509,6.8994.7033.5054,1.4198.9902,2.1576,1.448.7209.4708,1.4668.9108,2.2204,1.3333,1.498.8511,3.0804,1.5731,4.6676,2.237,3.1862,1.3084,6.5098,2.2954,9.9379,2.7662,3.4291.4467,6.9203.429,10.2728-.1411,2.903-.5521,5.6782-1.5348,8.1213-2.901l7.756-3.9417-1.5108-6.0178-5.5112,2.1186c-2.6562.9619-5.4845,1.3521-8.2935,1.1162-4.5123-.3682-8.9229-2.1597-12.7064-4.8592-3.799-2.6893-7.0428-6.2035-9.5251-10.1579-2.4936-3.9605-4.1734-8.3563-4.9685-12.941-1.6631-9.1831.2304-18.8555,4.2183-27.4715,1.995-4.3243,4.5096-8.426,7.4245-12.2126,1.4602-1.8926,3.016-3.7057,4.6731-5.4278.8555-.8506,1.6895-1.7199,2.5595-2.5566.8924-.8164,1.7579-1.6575,2.6695-2.4549,3.6273-3.2092,7.5219-6.1484,11.5686-8.9123,4.0349-2.7833,8.2321-5.3833,12.513-7.8974,8.5603-5.036,17.4689-9.6971,26.2166-14.9446,8.7258-5.2428,17.3223-11.0475,24.9715-18.2112,3.8193-3.5745,7.3717-7.5059,10.4866-11.8015,3.1134-4.287,5.8102-8.9826,7.8149-13.9087,2.3201-5.6408,3.8855-11.5507,4.7367-17.5511.6986-.1787,1.3905-.3829,2.0655-.6355.9599-.3593,1.8922-.7931,2.7828-1.3004.5679-.3237,1.9575-1.7108,2.5355-1.7404-2.3223.1194-4.6584-.2011-6.8779-.8939Z"/>
        <path d="M832.6523,838.6016c-1.6064,0-3.2388-.1074-4.8896-.3232-3.2842-.4502-6.71-1.4033-10.188-2.832-1.9355-.8096-3.4531-1.5371-4.7822-2.293-.8813-.4941-1.605-.9287-2.2725-1.3643-.7065-.4385-1.4312-.9248-2.1948-1.4746-2.8979-2.0518-5.6226-4.417-8.0928-7.0234-2.4971-2.7217-4.7261-5.7129-6.6367-8.9014-.438-.7432-.855-1.4971-1.2734-2.2559l-.1235-.2236c-.4404-.8623-.8501-1.7031-1.2583-2.5537-.7124-1.5859-1.5117-3.4385-2.125-5.334-2.3022-6.9453-3.3901-14.4482-3.231-22.293.2241-7.167,1.4756-14.3662,3.7212-21.4062.2153-.6914.4443-1.3799.6816-2.0654-2.2764-.7285-4.6724-1.0273-6.9873-.8652-.0254-.001-.0493.0029-.0728.0029-.521,0-.96-.4033-.9966-.9307-.0361-.5215.3345-.9775.8423-1.0576.2432-.1104.8394-.6162,1.1646-.8926.3799-.3232.7075-.6016.9829-.7646.9155-.5449,1.8916-1.0234,2.9014-1.4229,1.6064-.6357,3.2993-1.0732,5.0396-1.3027.0898-.2051.1797-.4102.2729-.6138,1.6045-3.4907,3.2241-6.5522,4.9517-9.3589,1.8379-3.0146,3.8652-5.9648,6.0244-8.7642l.1304-.1636c1-1.2568,2.0122-2.5288,3.0439-3.7544l.8672-.998c.8008-.9238,1.606-1.8525,2.4238-2.7397,3.8076-4.1851,8.2007-8.3442,13.8218-13.0835,4.8208-3.9517,9.5078-7.5112,13.9414-10.5884l6.6846-4.6191,6.4404-4.2686c1.3374-.897,2.6479-1.7656,3.9277-2.6133,2.7095-1.7949,5.269-3.4907,7.6963-5.2031,3.5039-2.4648,6.8892-4.876,9.8066-7.2842,2.9907-2.3823,5.5576-4.6885,7.6426-6.8643,1.9653-1.9585,3.6689-4.0083,5.2236-6.2822.1328-.2183.314-.4819.4927-.7407.1655-.2402.3291-.4756.4614-.6982l.7842-1.3618c.4863-.8843.9082-1.8115,1.3931-2.9331,1.7808-4.1787,2.7939-9.0972,2.9282-14.2183.0664-2.4058-.0952-4.9814-.4951-7.8765-.2261-1.5093-.4678-2.7319-.7583-3.8364l-.4937-1.9541c-.0664-.1943-.144-.4614-.2212-.729-.1035-.3569-.2061-.7148-.3354-1.0566-.3467-1.1006-.7593-2.0811-1.1963-3.1196l-.209-.4971c-.479-1.1816-1.0503-2.249-1.6929-3.4233l-.2695-.4517c-.2412-.4077-.4834-.8188-.7534-1.2178-.2417-.4185-.4697-.7563-.6987-1.0962-.1548-.23-.3101-.4609-.4595-.6968-.6426-.8921-1.5493-2.123-2.5801-3.3086-3.688-4.4092-8.6738-8.5259-14.4321-11.9204-5.8726-3.4336-12.3208-5.9043-19.1626-7.3418-7.1792-1.4995-14.9785-1.7261-22.5552-.6567-1.8369.2202-3.7749.5479-6.1196,1.0337-1.9302.4292-3.8521.9453-5.8872,1.4912l-1.7192.4761c-3.3921.939-6.8999,1.9097-10.0059,3.7476-4.5977,2.7212-7.9111,5.4282-10.5742,7.6035-4.6475,3.7964-7.9966,6.541-13.8613,5.9395-2.6191-.2686-4.1758-1.1533-4.627-2.6294-.8623-2.8193,2.9653-6.3115,3.9883-7.1821.9849-1.3755,2.0151-2.7354,3.064-4.0435,1.7056-2.1157,3.436-4.0918,5.1445-5.876,1.7554-1.8604,3.6396-3.6934,5.5962-5.4434,7.9253-7.1157,16.7661-12.7905,26.2754-16.8652,9.9248-4.2231,20.249-6.5601,30.6885-6.9468,10.5322-.3911,21.0376,1.1807,31.2212,4.6743,10.3491,3.54,19.623,8.7983,27.563,15.6274,8.2441,7.0259,14.957,15.7852,19.4102,25.3276,4.4863,9.5479,7.0586,20.2695,7.4375,31.0039.0928,2.7275.04,5.5083-.1572,8.2798,1.917.5156,3.8564.7261,5.7666.6284h.001c.541-.0327,1.0215.395,1.0508.9473.0264.522-.3525.9717-.8613,1.042-.2451.106-.8516.6021-1.1826.873-.3848.3149-.7178.5874-.9951.7456-.9238.5269-1.9092.9868-2.9277,1.3682-.4688.1753-.9707.3384-1.5215.4941-.8984,5.9629-2.4814,11.7246-4.707,17.1362-1.9609,4.8198-4.6289,9.5703-7.9297,14.1157-3.0137,4.1553-6.584,8.1738-10.6123,11.9443-6.6611,6.2383-14.415,11.894-25.1401,18.3379-4.7637,2.8574-9.6299,5.5728-14.3364,8.1982-3.9258,2.1904-7.9854,4.4556-11.8887,6.7515-4.8647,2.8574-8.8213,5.3545-12.4517,7.8589-4.3794,2.9907-8.1313,5.8809-11.4741,8.8379-.5742.5024-1.126,1.019-1.6782,1.5347-.3247.3037-.6499.6084-.979.9092-.5244.5039-1.0527,1.0391-1.5811,1.5732-.3149.3193-.6304.6377-.9482.9541-1.5864,1.6494-3.1348,3.4482-4.5859,5.3291-2.9189,3.793-5.3784,7.8369-7.3086,12.0215-4.2368,9.1533-5.6689,18.4463-4.1426,26.875.7808,4.501,2.4053,8.7334,4.8306,12.5869,2.4551,3.9102,5.6558,7.3232,9.2568,9.873,3.813,2.7217,8.0342,4.3379,12.2104,4.6787,2.624.2217,5.3467-.1455,7.8716-1.0596l5.4927-2.1113c.2666-.1016.5659-.085.8198.0459.2539.1318.4395.3662.5088.6445l1.5107,6.0176c.1138.4521-.1006.9229-.5166,1.1348l-7.7559,3.9414c-2.4971,1.3975-5.3311,2.4102-8.3877,2.9922-1.8535.3154-3.7578.4727-5.6997.4727ZM786.0103,755.4287c1.8999.167,3.7974.5977,5.6064,1.2793.5107.1924.7729.7588.5889,1.2725-.3481.9736-.6836,1.9521-.9927,2.9434-2.1909,6.8711-3.4111,13.8857-3.6289,20.8574-.1543,7.6064.8994,14.8838,3.1323,21.6191.5854,1.8105,1.3589,3.6006,2.0376,5.1143.3906.8115.7935,1.6387,1.2109,2.458l.1079.1943c.4097.7422.8169,1.4795,1.2422,2.2012,1.8379,3.0664,3.9854,5.9482,6.3799,8.5596,2.3696,2.5,4.9951,4.7783,7.792,6.7588.7329.5273,1.4199.9883,2.1069,1.415.6489.4229,1.3359.8359,2.1821,1.3105,1.2622.7178,2.7109,1.4111,4.5645,2.1865,3.3164,1.3623,6.5776,2.2705,9.688,2.6982,3.4414.4463,6.7969.4033,9.9692-.1367,2.7856-.5303,5.4897-1.4951,7.8008-2.7881l7.0801-3.5986-1.0415-4.1484-4.4575,1.7129c-2.813,1.0176-5.8291,1.4258-8.7363,1.1787-4.5332-.3691-9.1001-2.1133-13.2036-5.041-3.811-2.6992-7.1982-6.3096-9.7915-10.4404-2.564-4.0732-4.2822-8.5498-5.1064-13.3018-1.5986-8.8281-.1138-18.5342,4.2959-28.0625,1.9927-4.3184,4.5298-8.4922,7.54-12.4033,1.4966-1.9395,3.0923-3.793,4.7446-5.5107.3296-.3281.6406-.6426.9517-.957.5405-.5469,1.0806-1.0938,1.6353-1.627.3418-.313.6616-.6118.9814-.9111.5679-.5312,1.1362-1.062,1.7231-1.5757,3.4014-3.0088,7.2178-5.9492,11.6631-8.9849,3.6675-2.5303,7.6631-5.0518,12.5703-7.9341,3.9219-2.3076,7.9917-4.5781,11.9272-6.7734,4.6929-2.6187,9.5454-5.3257,14.2812-8.1665,10.5991-6.3682,18.248-11.9453,24.8027-18.0835,3.9355-3.6836,7.4219-7.6064,10.3604-11.6587,3.207-4.4155,5.7959-9.0244,7.6973-13.6987,2.2461-5.459,3.8184-11.2832,4.6738-17.3149.0566-.4009.3506-.728.7432-.8281.7422-.1899,1.3848-.3872,1.9619-.603.8936-.3345,1.7578-.7358,2.5693-1.1929-1.3643-.1455-2.7266-.4292-4.0762-.8506-.4463-.1392-.7363-.5693-.6992-1.0356.2412-2.9639.3135-5.9458.2148-8.8628-.3701-10.4653-2.877-20.9175-7.251-30.2251-4.334-9.2871-10.8682-17.8125-18.8994-24.6562-7.7495-6.666-16.8022-11.7974-26.9106-15.2549-9.9507-3.4136-20.2075-4.9517-30.4985-4.5674-10.1943.3774-20.2803,2.6606-29.9771,6.7866-9.3062,3.9883-17.9624,9.5454-25.7266,16.5161-1.9155,1.7134-3.7593,3.5068-5.481,5.3315-1.6748,1.749-3.3672,3.6816-5.0356,5.751-1.0498,1.3096-2.0825,2.6748-3.0679,4.0552-.0493.0688-.1074.1318-.1729.186-1.6157,1.3525-3.8325,3.9233-3.4575,5.147.186.6069,1.2495,1.0532,2.9185,1.2246,5.0293.5151,7.8008-1.748,12.3921-5.499,2.7148-2.2178,6.0933-4.9775,10.8208-7.7754,3.3345-1.9741,6.9727-2.981,10.4912-3.9546l1.7339-.48c2.0566-.5518,3.999-1.0732,5.9858-1.5146,2.4155-.5005,4.4067-.8369,6.2808-1.0615,7.7822-1.0996,15.8203-.8643,23.2241.6821,7.0537,1.4819,13.7036,4.0308,19.7651,7.5747,5.9556,3.5107,11.1211,7.7798,14.9409,12.3472,1.0728,1.2334,2.0156,2.5127,2.7158,3.4883.1719.2681.3169.4834.4609.6978.2578.3823.5127.7627.7378,1.1587.2515.3667.5156.812.7773,1.2549l.2812.4722c.6694,1.2212,1.2939,2.3896,1.8091,3.6587l.2026.4834c.436,1.0352.8867,2.106,1.2427,3.2422.1289.3364.2485.7446.3667,1.1528.0708.2451.1416.4897.2202.729l.5103,2.0112c.3071,1.1665.5625,2.4565.8013,4.0513.4165,3.0161.5845,5.6997.5146,8.2153-.1406,5.3687-1.209,10.54-3.0894,14.9531-.4414,1.0205-.9238,2.0986-1.4766,3.1035l-.8247,1.4336c-.1489.25-.3369.5239-.5293.8027-.1582.229-.3193.4619-.4604.6924-1.6533,2.4199-3.4351,4.5635-5.4736,6.5952-2.1309,2.2236-4.7642,4.5903-7.811,7.0176-2.959,2.4424-6.3789,4.8779-9.9146,7.3652-2.4502,1.729-5.0215,3.4321-7.7437,5.2358-1.2769.8457-2.584,1.7119-3.9229,2.6099l-6.4321,4.2627-6.6606,4.603c-4.3911,3.0479-9.0356,6.5752-13.8047,10.4844-5.541,4.6724-9.874,8.7729-13.625,12.896-.8086.8774-1.6001,1.791-2.3877,2.6992l-.8604.9902c-1.0078,1.1973-2.0083,2.4551-2.9971,3.6973l-.1211.1519c-2.105,2.73-4.0913,5.6191-5.8931,8.5757-1.6875,2.7407-3.2695,5.7324-4.8394,9.1484-.1074.2344-.2104.4707-.314.708l-.1758.4014c-.145.3281-.4541.5527-.8101.5898-1.7646.1855-3.479.6035-5.0952,1.2422-.8857.3506-1.7422.7686-2.5469,1.2422ZM782.7485,755.418h-.0005.0005ZM782.8589,755.3975c-.001.001-.002.001-.0034.001.0015,0,.0049-.001.0034-.001h0ZM938.8174,653.5342h-.002.002Z"/>
      </g>
    </g>
  </g>
</svg>